<svg width="464" height="1016" viewBox="0 0 464 1016" fill="none" xmlns="http://www.w3.org/2000/svg">
<path fill-rule="evenodd" clip-rule="evenodd" d="M276.054 55.3308C276.054 70.0418 270.841 89.7292 262.346 105.717C261.469 107.367 260.561 108.97 259.624 110.52C259.144 112.739 259.001 115.489 259 116.986C259.051 116.912 259.102 116.839 259.153 116.766C258.51 122.44 258.123 129.25 258.494 135.723C258.758 140.338 259.411 144.845 260.668 148.67C261.917 152.473 263.82 155.775 266.71 157.74L266.784 157.79L266.862 157.831C275.548 162.341 294.943 173.075 303.604 180.161L303.683 180.226L303.771 180.28C305.292 181.209 307.791 182.673 310.368 184.059C312.883 185.411 315.569 186.741 317.499 187.396C323.528 190.177 332.604 195.766 340.211 203.478C347.857 211.231 353.863 220.967 354.054 232.026L354.055 232.106L354.065 232.186C354.556 236.111 355.654 249.552 356.054 271.527L356.056 271.645L356.077 271.761C357.994 282.601 361.021 299.112 363.87 313.418C365.294 320.569 366.676 327.181 367.853 332.261C368.442 334.799 368.983 336.97 369.455 338.641C369.889 340.172 370.311 341.464 370.718 342.186C375.514 352.796 386.708 383.654 393.074 422.244L393.08 422.283L393.089 422.322C394.93 430.694 398.197 443.239 402.02 453.666C403.928 458.87 406 463.619 408.138 467.068C409.204 468.789 410.33 470.258 411.515 471.298C412.631 472.279 413.942 473 415.398 473.004C419.689 474.002 426.167 475.789 431.872 477.953C434.768 479.051 437.419 480.229 439.471 481.429C441.603 482.675 442.802 483.784 443.192 484.629L443.252 484.76L443.337 484.877C448.41 491.914 458.579 506.042 459.742 507.739C459.991 508.295 460.115 508.814 460.107 509.184C460.1 509.508 460.016 509.552 459.948 509.589L459.944 509.591C459.74 509.701 459.095 509.876 457.584 509.559C456.17 509.261 454.197 508.574 451.505 507.293C450.06 505.524 447.886 503.029 445.793 500.969C444.699 499.891 443.587 498.893 442.589 498.181C442.093 497.826 441.579 497.509 441.077 497.293C440.611 497.093 439.954 496.89 439.26 497.029L438.861 497.109L438.557 497.379C437.697 498.143 436.49 499.493 435.539 501.155C434.595 502.806 433.814 504.925 434.063 507.166L434.088 507.389L434.177 507.595C440.525 522.296 453.466 552.372 454.649 555.527L454.665 555.568L454.683 555.609C455.317 557.036 456.054 559.18 456.264 560.997C456.37 561.916 456.321 562.602 456.172 563.035C456.051 563.388 455.909 563.49 455.69 563.545L455.564 563.576L455.444 563.629C455.18 563.747 454.389 563.895 453.301 563.256C452.21 562.616 450.762 561.138 449.441 557.929L449.407 557.846L449.363 557.768L432.863 528.268L430.153 529.536L443.144 563.514C443.779 565.346 444.446 568.084 444.454 570.392C444.457 571.558 444.291 572.47 443.988 573.082C443.719 573.624 443.361 573.92 442.785 574.024L442.609 574.056L442.445 574.129C442.441 574.131 442.27 574.199 441.883 574.097C441.501 573.996 440.933 573.73 440.222 573.115C438.787 571.875 436.9 569.328 434.946 564.443L434.938 564.421L434.928 564.399L420.928 532.399L418.139 533.499L430.112 567.423C430.504 569.101 430.789 571.352 430.535 572.924C430.403 573.744 430.172 574.076 430.051 574.174L430.05 574.175C430.032 574.191 429.844 574.366 429.098 574.102C429.078 574.085 429.051 574.063 429.018 574.032C428.986 574.003 428.949 573.967 428.904 573.922C428.665 573.68 428.327 573.277 427.882 572.662C426.995 571.436 425.771 569.481 424.17 566.555C420.97 560.709 416.326 551.094 409.936 535.918L407.109 536.904L414.108 561.901L414.109 561.904C414.507 563.336 414.887 565.386 414.818 566.959C414.782 567.77 414.634 568.237 414.5 568.441C414.492 568.453 414.485 568.464 414.478 568.472C414.474 568.479 414.469 568.484 414.465 568.489C414.456 568.5 414.448 568.506 414.444 568.51C414.429 568.515 414.37 568.528 414.24 568.512C413.672 568.441 411.109 567.401 410.015 562.663L409.998 562.589L409.974 562.517C407.055 553.929 402.577 540.993 398.626 530.101C396.652 524.657 394.805 519.711 393.348 516.069C392.621 514.252 391.983 512.739 391.47 511.645C391.215 511.101 390.977 510.632 390.764 510.27C390.725 510.204 390.684 510.137 390.642 510.071C390.57 509.959 390.495 509.849 390.415 509.748C390.395 509.722 390.368 509.688 390.334 509.648C390.323 509.635 390.312 509.622 390.3 509.609C388.714 505.926 385.9 495.645 387.048 482.632L387.079 482.276L386.947 481.945C383.195 472.523 377.341 458.063 371.974 445.306C369.291 438.928 366.725 432.967 364.603 428.271C362.528 423.677 360.81 420.142 359.812 418.682C354.006 409.218 341.473 385.133 337.528 364.222L337.505 364.101L337.463 363.985C333.043 351.894 326.262 333.828 320.283 318.929C317.296 311.483 314.499 304.807 312.294 300.057C311.195 297.691 310.223 295.76 309.435 294.444C309.053 293.807 308.671 293.241 308.303 292.835C309.728 288.162 311.5 281.776 312.943 275.328C314.666 267.626 315.969 259.632 315.549 254.38L315.545 254.329L315.537 254.277C315.041 250.971 314.371 245.683 313.974 240.584C313.776 238.034 313.647 235.549 313.641 233.393C313.635 231.208 313.756 229.462 314.015 228.337L311.092 227.663C310.751 229.138 310.635 231.171 310.641 233.401C310.648 235.659 310.782 238.225 310.983 240.816C311.385 245.974 312.059 251.306 312.563 254.67C312.93 259.422 311.736 266.984 310.015 274.672C308.409 281.849 306.387 288.958 304.914 293.635C297.526 314.776 289.161 370.659 312.626 431.966C318.749 454.531 327.295 512.6 312.61 564.592L312.581 564.697L312.566 564.805C309.98 584.492 306.353 616.167 303.871 647.231C301.393 678.245 300.044 708.805 302.064 726.173L302.09 726.4L302.183 726.609C304.395 731.587 307.34 745.069 308.606 769.166C309.867 793.182 309.455 827.589 305.065 874.304C303.23 885.156 300.681 901.854 298.988 916.756C298.141 924.216 297.505 931.252 297.283 936.888C297.172 939.704 297.163 942.198 297.288 944.234C297.405 946.135 297.645 947.805 298.122 948.967C298.679 951.395 299.29 955.216 299.341 958.896C299.368 960.767 299.248 962.554 298.925 964.08C298.598 965.626 298.09 966.773 297.439 967.497L297.249 967.708L297.149 967.973C296.532 969.62 295.971 973.599 298.282 977.295L298.293 977.314L298.306 977.332C298.924 978.259 300.017 980.225 301.2 983H301.313C301.318 983.019 301.323 983.038 301.328 983.058C301.353 983.163 301.381 983.285 301.409 983.423C301.512 983.914 301.622 984.562 301.737 985.34C301.915 986.541 302.099 988.012 302.28 989.622C302.283 989.652 302.286 989.682 302.29 989.712C302.34 990.156 302.39 990.61 302.439 991.072C302.902 995.415 303.329 1000.37 303.58 1003.62L303.58 1003.62L303.581 1003.63C303.594 1003.78 303.6 1003.92 303.6 1004.07C303.42 1004.29 303.303 1004.57 303.279 1004.88C303.263 1005.1 303.291 1005.3 303.356 1005.49C302.911 1006.74 301.851 1007.83 300.152 1008.8C297.633 1010.23 293.989 1011.18 289.915 1011.7C285.87 1012.22 281.532 1012.29 277.714 1012.06C273.861 1011.82 270.671 1011.27 268.867 1010.59C267.887 1010.23 266.957 1009.15 266.223 1007.07C265.506 1005.03 265.09 1002.36 264.909 999.384C264.569 993.784 265.076 987.426 265.69 983H265.777C265.787 982.717 265.798 982.435 265.81 982.154C265.816 982.093 265.819 982.032 265.818 981.972C265.906 979.966 266.039 978.041 266.228 976.291C266.517 973.612 266.927 971.444 267.458 970.027L267.52 969.861L267.542 969.686C267.637 968.924 267.693 967.727 267.557 966.53C267.439 965.501 267.147 964.152 266.333 963.178C265.633 961.466 264.7 957.097 266.454 952.538L266.564 952.251L266.553 951.944C265.886 934.187 264.685 906.851 263.251 882.549C262.534 870.4 261.758 858.999 260.96 849.93C260.175 841.001 259.357 834.164 258.516 831.158C255.521 814.988 250.477 775.913 254.041 748.191L254.048 748.144L254.051 748.096C254.565 740.034 253.025 716.476 242.98 685.537L242.977 685.526C241.192 680.171 237.762 665.258 238.552 649.073L238.554 649.039L238.554 649.005C238.637 625.917 238.587 591.282 238.166 562.416C237.956 547.985 237.652 534.982 237.226 525.58C237.013 520.885 236.768 517.061 236.485 514.399C236.39 513.505 236.289 512.719 236.178 512.063C257.585 513.152 272.709 511.827 282.954 509.691C288.174 508.603 292.143 507.301 295.037 505.991C297.906 504.692 299.803 503.347 300.781 502.125C301.126 501.693 301.056 501.064 300.625 500.719C300.193 500.374 299.564 500.444 299.219 500.875C298.531 501.736 296.969 502.921 294.213 504.169C291.482 505.405 287.659 506.668 282.546 507.734C272.408 509.847 257.257 511.175 235.619 510.032C235.614 510.021 235.608 510.011 235.602 510H235.005C235.001 510 234.997 510 234.993 510H229.007C229.003 510 228.999 510 228.995 510H227.505C227.49 510.027 227.477 510.054 227.464 510.079C206.314 511.137 191.448 509.817 181.454 507.734C176.341 506.668 172.518 505.405 169.787 504.169C167.031 502.921 165.469 501.736 164.781 500.875C164.436 500.444 163.807 500.374 163.375 500.719C162.944 501.064 162.874 501.693 163.219 502.125C164.197 503.347 166.094 504.692 168.963 505.991C171.857 507.301 175.826 508.603 181.046 509.691C191.147 511.797 205.99 513.114 226.922 512.108C226.814 512.754 226.715 513.525 226.622 514.399C226.34 517.061 226.095 520.885 225.882 525.58C225.455 534.982 225.152 547.985 224.941 562.416C224.52 591.282 224.47 625.917 224.554 649.005L224.554 649.039L224.555 649.073C225.345 665.258 221.915 680.171 220.131 685.526L220.127 685.537C210.082 716.476 208.542 740.034 209.057 748.096L209.06 748.144L209.066 748.191C212.63 775.913 207.586 814.988 204.591 831.158C203.75 834.164 202.932 841.001 202.147 849.93C201.349 858.999 200.573 870.4 199.856 882.549C198.422 906.851 197.222 934.187 196.555 951.944L196.543 952.251L196.654 952.538C198.407 957.097 197.474 961.466 196.775 963.178C195.96 964.152 195.668 965.501 195.551 966.53C195.414 967.727 195.47 968.924 195.565 969.686L195.587 969.861L195.649 970.027C196.181 971.444 196.591 973.612 196.88 976.291C197.061 977.974 197.191 979.819 197.279 981.742C197.252 981.896 197.249 982.058 197.274 982.221C197.286 982.304 197.298 982.387 197.31 982.471C197.318 982.647 197.324 982.823 197.331 983H197.386C197.999 987.426 198.506 993.784 198.166 999.384C197.985 1002.36 197.569 1005.03 196.852 1007.07C196.118 1009.15 195.188 1010.23 194.208 1010.59C192.404 1011.27 189.214 1011.82 185.362 1012.06C181.543 1012.29 177.205 1012.22 173.16 1011.7C169.086 1011.18 165.442 1010.23 162.923 1008.8C160.431 1007.38 159.314 1005.69 159.494 1003.63L159.495 1003.62L159.496 1003.62C159.747 1000.37 160.173 995.415 160.636 991.072C160.868 988.898 161.108 986.893 161.338 985.34C161.453 984.562 161.563 983.914 161.666 983.423C161.7 983.258 161.732 983.118 161.762 983H161.907C163.091 980.225 164.184 978.259 164.802 977.332L164.814 977.314L164.826 977.295C167.136 973.599 166.576 969.62 165.958 967.973L165.859 967.708L165.669 967.497C165.017 966.773 164.509 965.626 164.182 964.08C163.859 962.554 163.74 960.767 163.766 958.896C163.817 955.216 164.428 951.395 164.985 948.967C165.463 947.805 165.703 946.135 165.819 944.234C165.944 942.198 165.935 939.704 165.824 936.888C165.603 931.252 164.967 924.216 164.119 916.756C162.426 901.854 159.878 885.156 158.042 874.304C153.652 827.589 153.24 793.182 154.502 769.166C155.768 745.069 158.712 731.587 160.924 726.609L161.017 726.4L161.044 726.173C163.063 708.805 161.714 678.245 159.236 647.231C156.755 616.167 153.127 584.492 150.541 564.805L150.527 564.697L150.497 564.592C135.812 512.6 144.358 454.531 150.481 431.966C173.946 370.659 165.581 314.775 158.193 293.635C156.72 288.958 154.698 281.849 153.092 274.672C151.372 266.984 150.177 259.422 150.545 254.67C151.048 251.306 151.723 245.974 152.124 240.816C152.326 238.225 152.46 235.659 152.466 233.401C152.473 231.171 152.356 229.138 152.015 227.663L149.092 228.337C149.352 229.462 149.472 231.208 149.466 233.393C149.46 235.549 149.332 238.034 149.133 240.584C148.737 245.683 148.066 250.971 147.57 254.277L147.562 254.329L147.558 254.38C147.138 259.632 148.441 267.626 150.165 275.328C151.608 281.776 153.38 288.162 154.805 292.835C154.436 293.241 154.055 293.807 153.673 294.444C152.884 295.76 151.913 297.691 150.814 300.057C148.608 304.807 145.812 311.483 142.824 318.929C136.845 333.828 130.064 351.894 125.645 363.985L125.603 364.101L125.58 364.222C121.634 385.133 109.101 409.218 103.296 418.682C102.297 420.142 100.58 423.677 98.504 428.271C96.382 432.967 93.8169 438.928 91.1336 445.306C85.7662 458.063 79.9124 472.523 76.1601 481.945L76.0282 482.276L76.0595 482.632C77.2077 495.645 74.3929 505.926 72.8077 509.609C72.7573 509.665 72.7188 509.714 72.6925 509.748C72.566 509.909 72.4488 510.092 72.3433 510.27C72.1302 510.632 71.8925 511.101 71.6376 511.645C71.1245 512.739 70.4865 514.252 69.7594 516.069C68.3028 519.711 66.4556 524.657 64.4811 530.101C60.5306 540.993 56.052 553.929 53.1335 562.517L53.1091 562.589L53.0921 562.663C51.9988 567.401 49.4353 568.441 48.8677 568.512C48.7379 568.528 48.6785 568.515 48.6632 568.51C48.6551 568.503 48.6359 568.485 48.6074 568.441C48.4737 568.237 48.3255 567.77 48.2898 566.959C48.2207 565.386 48.6009 563.336 48.9985 561.904L48.9991 561.901L55.9982 536.904L53.1713 535.918C46.7815 551.094 42.1371 560.709 38.9379 566.555C37.3365 569.481 36.1119 571.436 35.2256 572.662C34.7806 573.277 34.4421 573.68 34.203 573.922C34.113 574.013 34.0489 574.07 34.0094 574.102C33.2638 574.366 33.0751 574.191 33.0578 574.175L33.0567 574.174C32.9353 574.076 32.7042 573.744 32.5721 572.924C32.3188 571.352 32.603 569.101 32.9951 567.423L44.9682 533.499L42.1795 532.399L28.1795 564.399L28.1699 564.421L28.161 564.443C26.2069 569.328 24.3201 571.875 22.8854 573.115C22.1739 573.73 21.6063 573.996 21.2241 574.097C20.8373 574.199 20.666 574.131 20.6629 574.129L20.4988 574.056L20.322 574.024C19.7468 573.92 19.3879 573.624 19.1195 573.082C18.816 572.47 18.6499 571.558 18.6538 570.392C18.6613 568.084 19.3282 565.346 19.9632 563.514L32.9548 529.536L30.2446 528.268L13.7446 557.768L13.7008 557.846L13.6667 557.929C12.3453 561.138 10.8977 562.616 9.8069 563.256C8.71888 563.895 7.92772 563.747 7.66293 563.629L7.54389 563.576L7.41751 563.545C7.19862 563.49 7.05605 563.388 6.93499 563.035C6.78628 562.602 6.73787 561.916 6.84385 560.997C7.05314 559.18 7.79044 557.036 8.42443 555.609L8.44254 555.568L8.4582 555.527C9.64117 552.372 22.5826 522.296 28.9308 507.595L29.0198 507.389L29.0445 507.166C29.2934 504.925 28.5123 502.806 27.5684 501.155C26.6176 499.493 25.4101 498.143 24.5503 497.379L24.2465 497.109L23.8479 497.029C23.1531 496.89 22.4961 497.093 22.0304 497.293C21.5282 497.509 21.0147 497.826 20.5179 498.181C19.5203 498.893 18.4086 499.891 17.3139 500.969C15.2214 503.029 13.0476 505.524 11.6024 507.293C8.91072 508.574 6.93738 509.261 5.52332 509.559C4.01241 509.876 3.36748 509.701 3.16378 509.591L3.15898 509.589C3.0914 509.552 3.00748 509.508 3.00037 509.184C2.99223 508.814 3.11617 508.295 3.36513 507.739C4.52841 506.042 14.6973 491.914 19.7706 484.877L19.8552 484.76L19.9158 484.629C20.3055 483.784 21.5045 482.675 23.6359 481.429C25.6883 480.229 28.3395 479.051 31.2358 477.953C36.9405 475.789 43.4187 474.002 47.7096 473.004C49.1654 473 50.4761 472.279 51.5926 471.298C52.7772 470.258 53.903 468.789 54.9695 467.068C57.1069 463.619 59.1795 458.87 61.0872 453.666C64.9101 443.239 68.1771 430.694 70.0188 422.322L70.0274 422.283L70.0339 422.244C76.3992 383.654 87.5939 352.796 92.3898 342.186C92.7962 341.464 93.2189 340.172 93.6521 338.641C94.1248 336.97 94.6657 334.799 95.2542 332.261C96.4318 327.181 97.8135 320.569 99.2375 313.418C102.086 299.112 105.113 282.601 107.031 271.761L107.051 271.645L107.054 271.527C107.453 249.552 108.552 236.111 109.042 232.186L109.052 232.106L109.054 232.026C109.244 220.967 115.25 211.231 122.897 203.478C130.504 195.766 139.579 190.177 145.608 187.396C147.538 186.741 150.224 185.411 152.739 184.059C155.317 182.673 157.816 181.209 159.336 180.28L159.424 180.226L159.504 180.161C168.165 173.075 187.56 162.341 196.245 157.831L196.324 157.79L196.397 157.74C199.287 155.775 201.191 152.473 202.44 148.67C203.696 144.845 204.349 140.338 204.614 135.723C204.95 129.867 204.664 123.734 204.13 118.416L204.197 118.507L204.119 118.307C204.095 118.062 204.069 117.818 204.043 117.577C204.217 115.429 203.707 113.21 203.167 111.632C201.987 109.742 200.85 107.765 199.762 105.717C191.267 89.7292 186.054 70.0418 186.054 55.3308C186.054 26.0148 206.587 3 231.054 3C255.52 3 276.054 26.0148 276.054 55.3308ZM158.721 982.849C158.701 982.899 158.68 982.95 158.66 983H158.69C158.584 983.538 158.477 984.182 158.37 984.901C158.218 985.929 158.063 987.136 157.911 988.444C155.479 990.295 151.974 993.096 149.132 995.662C147.682 996.971 146.363 998.256 145.446 999.342C144.994 999.877 144.587 1000.43 144.319 1000.94C144.185 1001.2 144.054 1001.52 143.991 1001.86C143.949 1002.09 143.93 1002.38 143.992 1002.69C144.011 1003.4 144.355 1004.05 144.86 1004.56C145.442 1005.14 146.281 1005.59 147.338 1005.92C149.287 1006.53 152.32 1006.85 156.916 1006.58C157.68 1008.64 159.37 1010.23 161.442 1011.41C164.458 1013.12 168.55 1014.13 172.779 1014.68C177.036 1015.22 181.566 1015.3 185.548 1015.05C189.494 1014.81 193.034 1014.23 195.256 1013.41C197.496 1012.57 198.847 1010.43 199.681 1008.06C200.532 1005.65 200.972 1002.66 201.16 999.566C201.526 993.539 200.957 986.762 200.302 982.195C200.212 980.014 200.071 977.9 199.862 975.969C199.577 973.321 199.156 970.92 198.524 969.152C198.464 968.573 198.436 967.708 198.532 966.87C198.646 965.87 198.897 965.278 199.114 965.061L199.307 964.868L199.419 964.621C200.366 962.538 201.584 957.298 199.564 951.756C200.233 934.006 201.427 906.863 202.851 882.726C203.567 870.588 204.341 859.22 205.135 850.192C205.936 841.094 206.744 834.544 207.496 831.912L207.516 831.844L207.529 831.774C210.534 815.579 215.666 776.093 212.048 747.857C211.571 740.204 213.046 717.065 222.978 686.47C224.859 680.825 228.357 665.559 227.554 648.961C227.47 625.883 227.521 591.287 227.941 562.459C228.151 548.036 228.454 535.07 228.879 525.716C229.091 521.035 229.333 517.284 229.606 514.716C229.734 513.505 229.865 512.602 229.993 512H233.114C233.242 512.602 233.373 513.505 233.502 514.716C233.774 517.284 234.016 521.035 234.229 525.716C234.653 535.07 234.956 548.036 235.166 562.459C235.587 591.287 235.637 625.883 235.554 648.961C234.75 665.559 238.248 680.825 240.129 686.47C250.062 717.065 251.536 740.204 251.06 747.857C247.441 776.093 252.574 815.579 255.579 831.774L255.592 831.844L255.611 831.912C256.363 834.544 257.172 841.094 257.972 850.192C258.766 859.22 259.54 870.588 260.256 882.726C261.681 906.863 262.875 934.006 263.543 951.756C261.524 957.298 262.742 962.538 263.688 964.621L263.801 964.868L263.993 965.061C264.211 965.278 264.462 965.87 264.576 966.87C264.672 967.708 264.643 968.573 264.584 969.152C263.952 970.92 263.531 973.321 263.245 975.969C263.047 977.807 262.909 979.812 262.819 981.883C262.145 986.449 261.54 993.4 261.915 999.566C262.103 1002.66 262.543 1005.65 263.394 1008.06C264.228 1010.43 265.579 1012.57 267.82 1013.41C270.041 1014.23 273.581 1014.81 277.528 1015.05C281.509 1015.3 286.039 1015.22 290.296 1014.68C294.525 1014.13 298.617 1013.12 301.633 1011.41C303.7 1010.23 305.386 1008.65 306.153 1006.59C310.585 1006.84 313.53 1006.52 315.437 1005.92C316.494 1005.59 317.333 1005.14 317.915 1004.56C318.42 1004.05 318.764 1003.4 318.783 1002.69C318.845 1002.38 318.826 1002.09 318.784 1001.86C318.721 1001.52 318.59 1001.2 318.456 1000.94C318.188 1000.43 317.781 999.877 317.329 999.342C316.412 998.256 315.093 996.971 313.643 995.662C310.927 993.21 307.605 990.543 305.194 988.695C305.032 987.291 304.867 985.995 304.705 984.901C304.599 984.182 304.492 983.538 304.385 983H304.447C304.405 982.894 304.362 982.789 304.32 982.685C304.216 982.204 304.084 981.693 303.899 981.326C303.808 981.145 303.686 980.991 303.542 980.866C302.455 978.437 301.459 976.658 300.815 975.688C299.249 973.168 299.527 970.435 299.882 969.255C300.9 968.007 301.504 966.385 301.86 964.701C302.245 962.884 302.369 960.858 302.341 958.854C302.285 954.848 301.616 950.738 301.014 948.159L300.982 948.021L300.924 947.891C300.643 947.256 300.402 946 300.283 944.05C300.166 942.155 300.172 939.772 300.281 937.006C300.498 931.477 301.125 924.525 301.969 917.094C303.657 902.238 306.202 885.566 308.033 874.75L308.042 874.696L308.047 874.64C312.452 827.784 312.873 793.209 311.602 769.009C310.35 745.188 307.454 731.27 305.018 725.605C303.075 708.534 304.391 678.387 306.861 647.469C309.334 616.523 312.947 584.957 315.527 565.303C330.385 512.578 321.706 453.912 315.501 431.106L315.481 431.034L315.454 430.963C292.89 372.066 300.121 318.292 307.134 296.454C307.797 297.621 308.619 299.267 309.573 301.321C311.744 305.995 314.516 312.612 317.499 320.046C323.443 334.858 330.188 352.825 334.603 364.9C338.678 386.335 351.416 410.743 357.275 420.285L357.297 420.32L357.32 420.354C358.125 421.516 359.734 424.782 361.87 429.507C363.976 434.168 366.529 440.101 369.209 446.469C374.504 459.056 380.277 473.309 384.029 482.725C382.89 496.41 385.928 507.248 387.688 511.121L387.908 511.604L388.133 511.717C388.147 511.739 388.163 511.765 388.181 511.795C388.323 512.036 388.514 512.407 388.754 512.918C389.229 513.933 389.842 515.383 390.563 517.184C392.001 520.779 393.835 525.689 395.806 531.124C399.737 541.961 404.194 554.835 407.11 563.413C408.429 569.019 411.778 571.227 413.868 571.488C414.493 571.567 415.119 571.501 415.697 571.236C416.275 570.97 416.705 570.551 417.01 570.084C417.588 569.201 417.771 568.08 417.815 567.091C417.904 565.065 417.434 562.666 416.999 561.099L416.998 561.096L415.634 556.223C417.971 561.198 419.927 565.052 421.538 567.995C423.17 570.977 424.462 573.052 425.451 574.419C425.943 575.101 426.382 575.636 426.769 576.029C426.962 576.225 427.164 576.406 427.371 576.557C427.545 576.682 427.79 576.836 428.092 576.928C429.48 577.42 430.857 577.384 431.941 576.504C432.925 575.705 433.325 574.469 433.497 573.401C433.756 571.797 433.605 569.882 433.336 568.259C435.006 571.779 436.69 574.028 438.26 575.385C440.095 576.971 442.006 577.497 443.485 576.943C445.02 576.613 446.064 575.65 446.676 574.415C447.274 573.207 447.458 571.763 447.454 570.383C447.445 567.608 446.666 564.509 445.97 562.507L445.963 562.486L445.955 562.464L440.342 547.786L446.702 559.155C448.174 562.695 449.962 564.776 451.782 565.844C453.56 566.887 455.311 566.919 456.542 566.422C457.848 566.051 458.634 565.103 459.01 564.009C459.37 562.961 459.371 561.759 459.244 560.653C458.989 558.438 458.138 556.006 457.442 554.431C456.138 550.991 443.352 521.277 437.026 506.626C436.942 505.326 437.402 503.941 438.143 502.645C438.732 501.615 439.447 500.732 440.038 500.118C440.25 500.224 440.519 500.389 440.846 500.622C441.656 501.2 442.638 502.072 443.689 503.106C445.782 505.167 447.993 507.721 449.388 509.444L449.599 509.705L449.901 509.851C452.856 511.277 455.168 512.116 456.967 512.495C458.72 512.863 460.226 512.845 461.363 512.234C462.637 511.55 463.082 510.341 463.106 509.25C463.129 508.221 462.798 507.184 462.411 506.361L462.363 506.261L462.302 506.168C461.485 504.944 451.024 490.41 445.847 483.23C445 481.535 443.104 480.078 440.986 478.839C438.73 477.521 435.906 476.274 432.935 475.147C426.988 472.892 420.269 471.049 415.891 470.038L415.687 469.991L415.479 470.002C415.027 470.024 414.375 469.818 413.495 469.045C412.623 468.279 411.679 467.087 410.688 465.488C408.711 462.298 406.721 457.772 404.837 452.634C401.082 442.393 397.854 430.011 396.027 421.716C389.605 382.806 378.306 351.664 373.42 340.881L373.384 340.802L373.34 340.728C373.161 340.431 372.818 339.505 372.342 337.824C371.888 336.22 371.36 334.102 370.776 331.583C369.609 326.548 368.234 319.973 366.812 312.832C363.979 298.605 360.968 282.183 359.051 271.355C358.652 249.541 357.565 236.056 357.052 231.894C356.815 219.787 350.249 209.384 342.347 201.372C334.417 193.332 324.985 187.534 318.68 184.637L318.605 184.603L318.528 184.577C316.863 184.022 314.339 182.787 311.789 181.416C309.315 180.087 306.91 178.68 305.423 177.773C296.475 170.483 276.991 159.714 268.327 155.212C266.251 153.767 264.657 151.201 263.518 147.733C262.373 144.248 261.745 140.025 261.489 135.552C260.976 126.609 261.962 116.927 263.032 110.756L263.056 110.613C264.977 107.309 266.758 103.809 268.382 100.194C270.498 100.791 272.487 100.456 274.254 99.4962C276.203 98.4378 277.835 96.6507 279.173 94.6628C281.852 90.6834 283.657 85.4433 284.513 81.8474L284.514 81.8436C287.698 68.3106 282.902 62.0998 278.851 60.6792C278.985 58.8424 279.054 57.0555 279.054 55.3308C279.054 24.7724 257.563 0 231.054 0C204.544 0 183.054 24.7724 183.054 55.3308C183.054 57.1156 183.127 58.967 183.27 60.8713C179.337 62.6048 175.036 68.8483 178.093 81.8436L178.094 81.8474C178.951 85.4433 180.755 90.6834 183.434 94.6628C184.773 96.6507 186.405 98.4378 188.353 99.4962C189.995 100.388 191.828 100.74 193.777 100.308C195.767 104.728 197.993 108.974 200.422 112.898C201.343 119.033 202.075 127.585 201.619 135.552C201.362 140.025 200.734 144.248 199.59 147.733C198.451 151.201 196.857 153.767 194.78 155.212C186.117 159.714 166.633 170.483 157.685 177.773C156.197 178.68 153.792 180.087 151.319 181.416C148.769 182.787 146.245 184.022 144.58 184.577L144.502 184.603L144.428 184.637C138.123 187.534 128.69 193.332 120.761 201.372C112.859 209.384 106.293 219.787 106.056 231.894C105.543 236.056 104.456 249.541 104.056 271.355C102.14 282.183 99.1282 298.605 96.2952 312.832C94.8734 319.973 93.4988 326.548 92.3317 331.583C91.7477 334.102 91.2191 336.22 90.7654 337.824C90.2898 339.505 89.946 340.431 89.7676 340.728L89.7232 340.802L89.6876 340.881C84.8013 351.664 73.5027 382.806 67.0804 421.716C65.2539 430.011 62.0251 442.393 58.2705 452.634C56.3866 457.772 54.3966 462.298 52.4195 465.488C51.4287 467.087 50.4842 468.279 49.6128 469.045C48.7319 469.818 48.0806 470.024 47.6288 470.002L47.4201 469.991L47.2166 470.038C42.8382 471.049 36.1195 472.892 30.1719 475.147C27.2015 476.274 24.3777 477.521 22.1218 478.839C20.0037 480.078 18.1073 481.535 17.26 483.23C12.0834 490.41 1.62195 504.944 0.805783 506.168L0.744032 506.261L0.69663 506.361C0.309608 507.184 -0.0215301 508.221 0.00109521 509.25C0.0250689 510.341 0.47061 511.55 1.74393 512.234C2.8819 512.845 4.38697 512.863 6.14064 512.495C7.93926 512.116 10.2513 511.277 13.206 509.851L13.5084 509.705L13.7197 509.444C15.1143 507.721 17.3257 505.167 19.4186 503.106C20.4697 502.072 21.4518 501.2 22.2614 500.622C22.588 500.389 22.8578 500.224 23.0699 500.118C23.6602 500.732 24.3752 501.615 24.9641 502.645C25.7054 503.941 26.1656 505.326 26.0811 506.626C19.7552 521.277 6.96911 550.991 5.66524 554.431C4.96911 556.006 4.11878 558.438 3.86357 560.653C3.73621 561.759 3.73781 562.961 4.09743 564.009C4.47294 565.103 5.25913 566.051 6.56557 566.422C7.79617 566.919 9.54756 566.887 11.3254 565.844C13.1452 564.776 14.9338 562.695 16.4059 559.155L22.7651 547.786L17.1528 562.464L17.1446 562.486L17.1371 562.507C16.441 564.509 15.6629 567.608 15.6538 570.383C15.6492 571.763 15.8331 573.207 16.4317 574.415C17.0439 575.65 18.0871 576.613 19.6225 576.943C21.1011 577.497 23.0121 576.971 24.847 575.385C26.4177 574.028 28.1017 571.779 29.7716 568.259C29.502 569.882 29.3518 571.797 29.6103 573.401C29.7824 574.469 30.1825 575.705 31.1663 576.504C32.2505 577.384 33.6271 577.42 35.0152 576.928C35.3169 576.836 35.5626 576.682 35.7363 576.557C35.9439 576.406 36.1453 576.225 36.3388 576.029C36.7257 575.636 37.1643 575.101 37.6568 574.419C38.6455 573.052 39.9376 570.977 41.5696 567.995C43.1802 565.052 45.1363 561.198 47.4737 556.223L46.1094 561.096L46.1086 561.099C45.6731 562.666 45.2036 565.065 45.2927 567.091C45.3362 568.08 45.5192 569.201 46.0969 570.084C46.4027 570.551 46.8321 570.97 47.4107 571.236C47.9884 571.501 48.614 571.567 49.2398 571.488C51.3294 571.227 54.6787 569.019 55.9977 563.413C58.913 554.835 63.3709 541.961 67.3013 531.124C69.2727 525.689 71.1067 520.779 72.5449 517.184C73.2652 515.383 73.8779 513.933 74.3538 512.918C74.5934 512.407 74.7847 512.036 74.9269 511.795C74.9445 511.765 74.9604 511.739 74.9744 511.717L75.1995 511.604L75.4193 511.121C77.1796 507.248 80.2174 496.41 79.0785 482.725C82.8305 473.309 88.6033 459.056 93.8988 446.469C96.5781 440.101 99.1316 434.168 101.238 429.507C103.373 424.782 104.982 421.516 105.787 420.354L105.81 420.32L105.832 420.285C111.691 410.743 124.43 386.335 128.505 364.9C132.919 352.825 139.664 334.858 145.608 320.046C148.591 312.612 151.364 305.995 153.535 301.321C154.488 299.267 155.311 297.621 155.974 296.454C162.986 318.292 170.218 372.066 147.653 430.963L147.626 431.034L147.606 431.106C141.402 453.912 132.722 512.578 147.581 565.303C150.16 584.957 153.774 616.523 156.246 647.469C158.716 678.387 160.033 708.534 158.089 725.605C155.654 731.27 152.757 745.188 151.506 769.009C150.234 793.209 150.655 827.784 155.06 874.64L155.065 874.696L155.075 874.75C156.905 885.566 159.451 902.238 161.138 917.094C161.982 924.525 162.609 931.477 162.827 937.006C162.936 939.772 162.941 942.155 162.825 944.05C162.705 946 162.465 947.256 162.183 947.891L162.125 948.021L162.093 948.159C161.491 950.738 160.822 954.848 160.766 958.854C160.738 960.858 160.863 962.884 161.247 964.701C161.603 966.385 162.207 968.007 163.225 969.255C163.58 970.435 163.858 973.168 162.292 975.688C161.652 976.652 160.664 978.416 159.584 980.824C159.418 980.955 159.278 981.124 159.176 981.326C158.975 981.725 158.837 982.295 158.729 982.81C158.726 982.823 158.724 982.836 158.721 982.849ZM201.114 114L201.054 113.905V114H201.114ZM261.054 113.905L260.993 114H261.054V113.905ZM272.822 96.86C271.811 97.4094 270.752 97.6311 269.594 97.4024C274.237 86.3492 277.399 74.4345 278.56 63.8565C280.771 65.2004 284.286 69.7106 281.594 81.1545C280.783 84.5585 279.088 89.4173 276.685 92.9872C275.481 94.7743 274.176 96.1247 272.822 96.86ZM192.542 97.4714C187.93 86.5093 184.775 74.6947 183.583 64.1741C181.389 65.8428 178.503 70.4853 181.013 81.1545C181.824 84.5585 183.519 89.4173 185.923 92.9872C187.126 94.7743 188.432 96.1247 189.785 96.86C190.658 97.3341 191.566 97.5642 192.542 97.4714ZM75.0546 511.597C75.0715 511.575 75.0697 511.581 75.0495 511.604L75.0546 511.597ZM388.045 511.587C388.046 511.589 388.049 511.592 388.053 511.597L388.058 511.604C388.048 511.593 388.043 511.586 388.042 511.584C388.041 511.583 388.042 511.584 388.045 511.587ZM251.699 287.285C251.304 286.899 250.671 286.906 250.285 287.301C249.899 287.696 249.906 288.329 250.301 288.715C253.968 292.297 260.331 296.877 267.558 298.985C274.824 301.104 283.049 300.735 290.174 294.239C290.582 293.867 290.611 293.234 290.239 292.826C289.867 292.418 289.234 292.389 288.826 292.761C282.351 298.665 274.91 299.046 268.117 297.065C261.286 295.073 255.199 290.703 251.699 287.285ZM38.2235 514.028C38.7604 513.898 39.3007 514.229 39.4302 514.765C39.5506 515.264 39.6512 516.06 39.6019 516.937C39.5527 517.811 39.35 518.848 38.7916 519.762C38.5036 520.233 37.8881 520.382 37.4169 520.094C36.9457 519.806 36.7971 519.19 37.0851 518.719C37.4117 518.184 37.5667 517.507 37.605 516.825C37.6432 516.146 37.5612 515.546 37.486 515.235C37.3565 514.698 37.6867 514.158 38.2235 514.028ZM59.482 521.645C59.3524 521.108 58.8122 520.778 58.2753 520.908C57.7384 521.037 57.4082 521.578 57.5378 522.115C57.613 522.426 57.695 523.026 57.6568 523.705C57.6184 524.386 57.4635 525.064 57.1369 525.599C56.8489 526.07 56.9974 526.685 57.4687 526.973C57.9399 527.261 58.5554 527.113 58.8434 526.642C59.4018 525.728 59.6045 524.691 59.6536 523.817C59.703 522.94 59.6023 522.144 59.482 521.645ZM156.505 1003.38C156.499 1003.45 156.493 1003.52 156.489 1003.6C152.215 1003.83 149.666 1003.5 148.236 1003.06C147.519 1002.83 147.168 1002.6 147.019 1002.47L147.051 1002.25L147.038 1002.22C147.168 1002 147.393 1001.69 147.738 1001.28C148.522 1000.35 149.722 999.171 151.142 997.888C153.113 996.109 155.429 994.2 157.463 992.59C157.071 996.472 156.723 1000.57 156.505 1003.38ZM306.57 1003.38C306.357 1000.63 306.019 996.653 305.638 992.849C307.591 994.402 309.766 996.204 311.632 997.888C313.053 999.171 314.253 1000.35 315.037 1001.28C315.382 1001.69 315.607 1002 315.736 1002.22L315.724 1002.25L315.756 1002.47C315.607 1002.6 315.256 1002.83 314.538 1003.06C313.143 1003.49 310.68 1003.82 306.587 1003.61C306.585 1003.57 306.582 1003.53 306.579 1003.48C306.576 1003.45 306.573 1003.41 306.57 1003.38ZM177.014 722.357C178.437 721.504 183.523 719.815 191.352 720.989C191.898 721.071 192.407 720.695 192.489 720.148C192.571 719.602 192.195 719.093 191.648 719.011C183.477 717.785 177.897 719.496 175.986 720.643C175.512 720.927 175.358 721.541 175.643 722.015C175.927 722.488 176.541 722.642 177.014 722.357ZM272.148 720.989C279.977 719.815 285.063 721.504 286.486 722.357C286.959 722.642 287.573 722.488 287.857 722.015C288.142 721.541 287.988 720.927 287.514 720.643C285.603 719.496 280.023 717.785 271.852 719.011C271.305 719.093 270.929 719.602 271.011 720.148C271.093 720.695 271.602 721.071 272.148 720.989ZM211.215 287.301C210.829 286.906 210.196 286.899 209.801 287.285C206.301 290.703 200.214 295.073 193.383 297.065C186.59 299.046 179.149 298.665 172.674 292.761C172.266 292.389 171.633 292.418 171.261 292.826C170.889 293.234 170.918 293.867 171.326 294.239C178.451 300.735 186.676 301.104 193.942 298.985C201.169 296.877 207.532 292.297 211.199 288.715C211.594 288.329 211.601 287.696 211.215 287.301ZM103.228 354.186C103.023 353.673 102.441 353.423 101.928 353.629C101.416 353.834 101.166 354.416 101.371 354.928L104.629 363.072C104.834 363.584 105.416 363.834 105.928 363.629C106.441 363.423 106.691 362.842 106.486 362.329L103.228 354.186ZM119.707 358.707C120.098 359.098 120.098 359.731 119.707 360.121L117.121 362.707C116.731 363.098 116.098 363.098 115.707 362.707C115.317 362.317 115.317 361.683 115.707 361.293L118.293 358.707C118.683 358.317 119.317 358.317 119.707 358.707ZM360.772 354.186C360.977 353.673 361.559 353.423 362.072 353.629C362.584 353.834 362.834 354.416 362.629 354.928L359.371 363.072C359.166 363.584 358.584 363.834 358.072 363.629C357.559 363.423 357.309 362.842 357.514 362.329L360.772 354.186ZM344.293 358.707C343.902 359.098 343.902 359.731 344.293 360.121L346.879 362.707C347.269 363.098 347.902 363.098 348.293 362.707C348.683 362.317 348.683 361.683 348.293 361.293L345.707 358.707C345.317 358.317 344.683 358.317 344.293 358.707ZM50.9965 515.917C50.9507 515.367 50.4673 514.958 49.917 515.003C49.3666 515.049 48.9576 515.533 49.0035 516.083C49.0824 517.03 49.1054 518.531 48.9212 519.918C48.8291 520.612 48.6896 521.243 48.4977 521.749C48.3005 522.269 48.0839 522.562 47.9 522.7C47.4582 523.031 47.3686 523.658 47.7 524.1C48.0314 524.542 48.6582 524.631 49.1 524.3C49.7161 523.838 50.1079 523.143 50.3679 522.458C50.6333 521.757 50.8001 520.963 50.9038 520.182C51.1113 518.619 51.0843 516.97 50.9965 515.917ZM406.173 520.908C405.636 520.778 405.096 521.108 404.966 521.645C404.846 522.144 404.745 522.94 404.795 523.817C404.844 524.691 405.046 525.728 405.605 526.642C405.893 527.113 406.508 527.261 406.98 526.973C407.451 526.685 407.599 526.07 407.311 525.599C406.985 525.064 406.83 524.386 406.791 523.705C406.753 523.026 406.835 522.426 406.91 522.115C407.04 521.578 406.71 521.037 406.173 520.908ZM425.018 514.765C425.148 514.229 425.688 513.898 426.225 514.028C426.762 514.158 427.092 514.698 426.962 515.235C426.887 515.546 426.805 516.146 426.843 516.825C426.882 517.507 427.036 518.184 427.363 518.719C427.651 519.19 427.503 519.806 427.031 520.094C426.56 520.382 425.945 520.233 425.657 519.762C425.098 518.848 424.896 517.811 424.846 516.937C424.797 516.06 424.898 515.264 425.018 514.765ZM414.531 515.003C413.981 514.958 413.498 515.367 413.452 515.917C413.364 516.97 413.337 518.619 413.544 520.182C413.648 520.963 413.815 521.757 414.08 522.458C414.34 523.143 414.732 523.838 415.348 524.3C415.79 524.631 416.417 524.542 416.748 524.1C417.08 523.658 416.99 523.031 416.548 522.7C416.364 522.562 416.148 522.269 415.951 521.749C415.759 521.243 415.619 520.612 415.527 519.918C415.343 518.531 415.366 517.03 415.445 516.083C415.491 515.533 415.082 515.049 414.531 515.003Z" fill="black"/>
</svg>
