<svg width="20" height="22" viewBox="0 0 20 22" fill="none" xmlns="http://www.w3.org/2000/svg">
<path d="M10 2.52148C12.2046 2.52148 14.3324 3.33063 15.98 4.79543C17.6275 6.26023 18.6801 8.27879 18.9382 10.4682C19.1962 12.6576 18.6416 14.8655 17.3797 16.6732C16.1178 18.4809 14.2363 19.7625 12.0921 20.2749C9.94795 20.7874 7.69027 20.4951 5.74735 19.4534C3.80443 18.4117 2.31142 16.6931 1.55154 14.6237C0.791659 12.5542 0.817768 10.2778 1.62491 8.22635C2.43206 6.17487 3.96409 4.49099 5.93039 3.49414" stroke="white"/>
<line x1="9.65698" y1="2.78334" x2="11.9882" y2="0.895127" stroke="white"/>
<line x1="9.8275" y1="2.17749" x2="11.7157" y2="4.50872" stroke="white"/>
</svg>
