<svg width="464" height="1044" viewBox="0 0 464 1044" fill="none" xmlns="http://www.w3.org/2000/svg">
<path fill-rule="evenodd" clip-rule="evenodd" d="M262.346 105.717C270.841 89.7292 276.054 70.0418 276.054 55.3308C276.054 26.0148 255.52 3 231.054 3C206.587 3 186.054 26.0148 186.054 55.3308C186.054 70.0418 191.267 89.7292 199.762 105.717C204 113.694 208.976 120.595 214.378 125.464C219.785 130.336 225.414 133 231.054 133C236.694 133 242.323 130.336 247.729 125.464C253.132 120.595 258.107 113.694 262.346 105.717ZM263.056 110.613C264.977 107.309 266.758 103.809 268.382 100.194C270.498 100.791 272.487 100.456 274.254 99.4962C276.203 98.4378 277.835 96.6507 279.173 94.6628C281.852 90.6834 283.657 85.4433 284.513 81.8474L284.514 81.8436C287.698 68.3106 282.902 62.0998 278.851 60.6792C278.985 58.8424 279.054 57.0555 279.054 55.3308C279.054 24.7724 257.563 0 231.054 0C204.544 0 183.054 24.7724 183.054 55.3308C183.054 57.1156 183.127 58.967 183.27 60.8713C179.337 62.6048 175.036 68.8483 178.093 81.8436L178.094 81.8474C178.951 85.4433 180.755 90.6834 183.434 94.6628C184.773 96.6507 186.405 98.4378 188.353 99.4962C189.995 100.388 191.828 100.74 193.777 100.308C195.767 104.728 197.993 108.974 200.422 112.898C201.343 119.033 202.075 127.585 201.619 135.552C201.362 140.025 200.734 144.248 199.59 147.733C198.451 151.201 196.857 153.767 194.78 155.212C186.117 159.714 166.633 170.483 157.685 177.773C156.197 178.68 153.792 180.087 151.319 181.416C148.769 182.787 146.245 184.022 144.58 184.577L144.502 184.603L144.428 184.637C138.123 187.534 128.69 193.332 120.761 201.372C112.858 209.384 106.293 219.787 106.056 231.894C105.543 236.056 104.456 249.541 104.056 271.355C102.14 282.183 99.1282 298.605 96.2952 312.832C94.8734 319.973 93.4988 326.548 92.3317 331.583C91.7477 334.102 91.2191 336.22 90.7654 337.824C90.2898 339.505 89.9459 340.431 89.7676 340.728L89.7232 340.802L89.6876 340.881C84.8013 351.664 73.5027 382.806 67.0803 421.716C65.2539 430.011 62.0251 442.393 58.2705 452.634C56.3866 457.772 54.3966 462.298 52.4195 465.488C51.4287 467.087 50.4841 468.279 49.6128 469.045C48.7319 469.818 48.0806 470.024 47.6288 470.002L47.4201 469.991L47.2166 470.038C42.8381 471.049 36.1195 472.892 30.1719 475.147C27.2015 476.274 24.3777 477.521 22.1218 478.839C20.0037 480.078 18.1073 481.535 17.26 483.23C12.0834 490.41 1.62195 504.944 0.805783 506.168L0.744031 506.261L0.696622 506.361C0.309598 507.184 -0.0215332 508.221 0.00109556 509.25C0.0250671 510.341 0.470609 511.55 1.74392 512.234C2.88189 512.845 4.38698 512.863 6.14064 512.495C7.93925 512.116 10.2513 511.277 13.206 509.851L13.5084 509.705L13.7197 509.444C15.1143 507.721 17.3257 505.167 19.4186 503.106C20.4697 502.072 21.4518 501.2 22.2614 500.622C22.588 500.389 22.8578 500.224 23.0699 500.118C23.6602 500.732 24.3752 501.615 24.9641 502.645C25.7054 503.941 26.1656 505.326 26.0811 506.626C19.7552 521.277 6.96911 550.991 5.66523 554.431C4.96911 556.006 4.11877 558.438 3.86357 560.653C3.7362 561.759 3.73781 562.961 4.09742 564.009C4.47294 565.103 5.25912 566.051 6.56556 566.422C7.79617 566.919 9.54756 566.887 11.3254 565.844C13.1452 564.776 14.9338 562.695 16.4059 559.155L22.7651 547.786L17.1528 562.464L17.1446 562.486L17.1371 562.507C16.441 564.509 15.6629 567.608 15.6538 570.383C15.6492 571.763 15.8331 573.207 16.4317 574.415C17.0439 575.65 18.0871 576.613 19.6225 576.943C21.1011 577.497 23.0121 576.971 24.847 575.385C26.4177 574.028 28.1017 571.779 29.7716 568.259C29.502 569.882 29.3518 571.797 29.6103 573.401C29.7823 574.469 30.1825 575.705 31.1663 576.504C32.2505 577.384 33.6271 577.42 35.0152 576.928C35.3169 576.836 35.5626 576.682 35.7363 576.557C35.9439 576.406 36.1453 576.225 36.3388 576.029C36.7257 575.636 37.1643 575.101 37.6568 574.419C38.6455 573.052 39.9376 570.977 41.5696 567.995C43.1802 565.052 45.1363 561.198 47.4737 556.223L46.1094 561.096L46.1086 561.099C45.6731 562.666 45.2036 565.065 45.2927 567.091C45.3362 568.08 45.5192 569.201 46.0969 570.084C46.4027 570.551 46.8321 570.97 47.4107 571.236C47.9884 571.501 48.614 571.567 49.2398 571.488C51.3294 571.227 54.6787 569.019 55.9977 563.413C58.913 554.835 63.3709 541.961 67.3013 531.124C69.2727 525.689 71.1067 520.779 72.5448 517.184C73.2652 515.383 73.8779 513.933 74.3538 512.918C74.5934 512.407 74.7846 512.036 74.9269 511.795L74.949 511.758L74.966 511.73L74.9744 511.717L75.1995 511.604L75.4193 511.121C77.1796 507.248 80.2174 496.41 79.0785 482.725C82.8305 473.309 88.6033 459.056 93.8988 446.469C96.578 440.101 99.1316 434.168 101.238 429.507C103.373 424.782 104.982 421.516 105.787 420.354L105.81 420.32L105.832 420.285C111.691 410.743 124.43 386.335 128.505 364.9C132.919 352.825 139.664 334.858 145.608 320.046C148.591 312.612 151.364 305.995 153.534 301.321C154.488 299.267 155.311 297.621 155.974 296.454C162.986 318.292 170.218 372.066 147.653 430.963L147.626 431.034L147.606 431.106C141.402 453.912 132.722 512.578 147.581 565.303C150.16 584.957 153.774 616.523 156.246 647.469C158.716 678.387 160.033 708.534 158.089 725.605C155.654 731.27 152.757 745.188 151.506 769.009C150.234 793.209 150.655 827.784 155.06 874.64L155.065 874.696L155.075 874.75C156.905 885.566 159.451 902.238 161.138 917.094C161.982 924.525 162.609 931.477 162.827 937.006C162.936 939.772 162.941 942.155 162.825 944.05C162.705 946 162.465 947.256 162.183 947.891L162.125 948.021L162.093 948.159C161.491 950.738 160.822 954.848 160.766 958.854C160.738 960.858 160.863 962.884 161.247 964.701C161.603 966.385 162.207 968.007 163.225 969.255C163.58 970.435 163.858 973.168 162.292 975.688C160.849 977.861 157.638 984.096 155.606 992.605C155.414 993.209 154.708 994.65 153.126 996.712C151.537 998.783 149.116 1001.41 145.593 1004.35L145.582 1004.36L145.571 1004.37C144.243 1005.52 142.218 1007.57 140.362 1010.07C138.532 1012.53 136.776 1015.54 136.1 1018.62C135.247 1021.46 134.404 1025.74 134.735 1029.35C134.901 1031.16 135.379 1033 136.486 1034.38C137.538 1035.69 139.041 1036.45 140.944 1036.51C141.687 1037.16 142.765 1037.76 144.096 1037.97C145.486 1038.19 147.053 1037.96 148.686 1037.04C149.362 1037.76 150.296 1038.41 151.491 1038.76C153.239 1039.28 155.355 1039.11 157.776 1037.88C159.669 1039.59 163.213 1041.42 167.501 1039.87C168.505 1041.17 170.044 1042.51 172.075 1043.22C174.808 1044.16 178.182 1043.86 181.919 1041.23L182.096 1041.1L182.231 1040.93C184.767 1037.72 188.608 1032.36 191.924 1026.68C195.201 1021.07 198.115 1014.9 198.548 1010.14L198.549 1010.12L198.55 1010.11C198.631 1008.97 198.802 1007.21 199.048 1005.66C199.171 1004.88 199.308 1004.18 199.452 1003.65C199.525 1003.39 199.591 1003.2 199.646 1003.07L199.657 1003.04L199.667 1003.02L199.678 1003L200.016 1002.66L200.051 1002.09C200.303 997.976 200.529 991.409 200.391 985.055C200.322 981.878 200.161 978.735 199.862 975.969C199.577 973.321 199.156 970.92 198.524 969.152C198.464 968.573 198.436 967.708 198.532 966.87C198.646 965.87 198.897 965.278 199.114 965.061L199.307 964.868L199.419 964.621C200.366 962.538 201.584 957.298 199.564 951.756C200.233 934.006 201.427 906.863 202.851 882.726C203.567 870.588 204.341 859.22 205.135 850.192C205.936 841.094 206.744 834.544 207.496 831.912L207.516 831.844L207.529 831.774C210.534 815.579 215.666 776.093 212.048 747.857C211.571 740.204 213.046 717.065 222.978 686.47C224.859 680.825 228.357 665.559 227.554 648.961C227.47 625.883 227.521 591.287 227.941 562.459C228.151 548.036 228.454 535.07 228.879 525.716C229.091 521.035 229.333 517.284 229.606 514.716C229.734 513.505 229.865 512.602 229.993 512H233.114C233.242 512.602 233.373 513.505 233.502 514.716C233.774 517.284 234.016 521.035 234.229 525.716C234.653 535.07 234.956 548.036 235.166 562.459C235.587 591.287 235.637 625.883 235.554 648.961C234.75 665.559 238.248 680.825 240.129 686.47C250.062 717.065 251.536 740.204 251.06 747.857C247.441 776.093 252.574 815.579 255.579 831.774L255.592 831.844L255.611 831.912C256.363 834.544 257.172 841.094 257.972 850.192C258.766 859.22 259.54 870.588 260.256 882.726C261.681 906.863 262.875 934.006 263.543 951.756C261.524 957.298 262.742 962.538 263.688 964.621L263.801 964.868L263.993 965.061C264.211 965.278 264.462 965.87 264.576 966.87C264.672 967.708 264.643 968.573 264.584 969.152C263.952 970.92 263.531 973.321 263.245 975.969C262.947 978.735 262.786 981.878 262.717 985.055C262.578 991.409 262.805 997.976 263.057 1002.09L263.091 1002.66L263.43 1003C263.438 1003.01 263.449 1003.04 263.462 1003.07C263.516 1003.2 263.583 1003.39 263.655 1003.65C263.799 1004.18 263.936 1004.88 264.06 1005.66C264.305 1007.21 264.476 1008.97 264.558 1010.11L264.559 1010.12L264.56 1010.14C264.993 1014.9 267.906 1021.07 271.183 1026.68C274.499 1032.36 278.341 1037.72 280.876 1040.93L281.011 1041.1L281.189 1041.23C284.925 1043.86 288.3 1044.16 291.032 1043.22C293.063 1042.51 294.602 1041.17 295.606 1039.87C299.895 1041.42 303.439 1039.59 305.331 1037.88C307.752 1039.11 309.868 1039.28 311.616 1038.76C312.812 1038.41 313.746 1037.76 314.422 1037.04C316.054 1037.96 317.622 1038.19 319.011 1037.97C320.342 1037.76 321.421 1037.16 322.164 1036.51C324.066 1036.45 325.57 1035.69 326.621 1034.38C327.728 1033 328.206 1031.16 328.372 1029.35C328.704 1025.74 327.86 1021.46 327.007 1018.62C326.332 1015.54 324.576 1012.53 322.745 1010.07C320.889 1007.57 318.864 1005.52 317.536 1004.37L317.525 1004.36L317.514 1004.35C313.992 1001.41 311.571 998.783 309.981 996.712C308.399 994.65 307.693 993.209 307.502 992.605C305.469 984.096 302.258 977.861 300.815 975.688C299.249 973.168 299.527 970.435 299.882 969.255C300.9 968.007 301.504 966.385 301.86 964.701C302.245 962.884 302.369 960.858 302.341 958.854C302.285 954.848 301.616 950.738 301.014 948.159L300.982 948.021L300.924 947.891C300.643 947.256 300.402 946 300.283 944.05C300.166 942.155 300.172 939.772 300.281 937.006C300.498 931.477 301.125 924.525 301.969 917.094C303.657 902.238 306.202 885.566 308.033 874.75L308.042 874.696L308.047 874.64C312.452 827.784 312.873 793.209 311.602 769.009C310.35 745.188 307.454 731.27 305.018 725.605C303.075 708.534 304.391 678.387 306.861 647.469C309.334 616.523 312.947 584.957 315.527 565.303C330.385 512.578 321.706 453.912 315.501 431.106L315.481 431.034L315.454 430.963C292.89 372.066 300.121 318.292 307.134 296.454C307.797 297.621 308.619 299.267 309.573 301.321C311.744 305.995 314.516 312.612 317.499 320.046C323.443 334.858 330.188 352.825 334.603 364.9C338.678 386.335 351.416 410.743 357.275 420.285L357.297 420.32L357.32 420.354C358.125 421.516 359.734 424.782 361.87 429.507C363.976 434.168 366.529 440.101 369.209 446.469C374.504 459.056 380.277 473.309 384.029 482.725C382.89 496.41 385.928 507.248 387.688 511.121L387.908 511.604L388.133 511.717C388.147 511.739 388.163 511.765 388.181 511.795C388.323 512.036 388.514 512.407 388.754 512.918C389.229 513.933 389.842 515.383 390.563 517.184C392.001 520.779 393.835 525.689 395.806 531.124C399.737 541.961 404.194 554.835 407.11 563.413C408.429 569.019 411.778 571.227 413.868 571.488C414.493 571.567 415.119 571.501 415.697 571.236C416.275 570.97 416.705 570.551 417.01 570.084C417.588 569.201 417.771 568.08 417.815 567.091C417.904 565.065 417.434 562.666 416.999 561.099L416.998 561.096L415.634 556.223C417.971 561.198 419.927 565.052 421.538 567.995C423.17 570.977 424.462 573.052 425.451 574.419C425.943 575.101 426.382 575.636 426.769 576.029C426.962 576.225 427.164 576.406 427.371 576.557C427.545 576.682 427.79 576.836 428.092 576.928C429.48 577.42 430.857 577.384 431.941 576.504C432.925 575.705 433.325 574.469 433.497 573.401C433.756 571.797 433.605 569.882 433.336 568.259C435.006 571.779 436.69 574.028 438.26 575.385C440.095 576.971 442.006 577.497 443.485 576.943C445.02 576.613 446.064 575.65 446.676 574.415C447.274 573.207 447.458 571.763 447.454 570.383C447.445 567.608 446.666 564.509 445.97 562.507L445.963 562.486L445.955 562.464L440.342 547.786L446.702 559.155C448.174 562.695 449.962 564.776 451.782 565.844C453.56 566.887 455.311 566.919 456.542 566.422C457.848 566.051 458.634 565.103 459.01 564.009C459.37 562.961 459.371 561.759 459.244 560.653C458.989 558.438 458.138 556.006 457.442 554.431C456.138 550.991 443.352 521.277 437.026 506.626C436.942 505.326 437.402 503.941 438.143 502.645C438.732 501.615 439.447 500.732 440.038 500.118C440.25 500.224 440.519 500.389 440.846 500.622C441.656 501.2 442.638 502.072 443.689 503.106C445.782 505.167 447.993 507.721 449.388 509.444L449.599 509.705L449.901 509.851C452.856 511.277 455.168 512.116 456.967 512.495C458.72 512.863 460.226 512.845 461.363 512.234C462.637 511.55 463.082 510.341 463.106 509.25C463.129 508.221 462.798 507.184 462.411 506.361L462.363 506.261L462.302 506.168C461.485 504.944 451.024 490.41 445.847 483.23C445 481.535 443.104 480.078 440.986 478.839C438.73 477.521 435.906 476.274 432.935 475.147C426.988 472.892 420.269 471.049 415.891 470.038L415.687 469.991L415.479 470.002C415.027 470.024 414.375 469.818 413.495 469.045C412.623 468.279 411.679 467.087 410.688 465.488C408.711 462.298 406.721 457.772 404.837 452.634C401.082 442.393 397.854 430.011 396.027 421.716C389.605 382.806 378.306 351.664 373.42 340.881L373.384 340.802L373.34 340.728C373.161 340.431 372.818 339.505 372.342 337.824C371.888 336.22 371.36 334.102 370.776 331.583C369.609 326.548 368.234 319.973 366.812 312.832C363.979 298.605 360.968 282.183 359.051 271.355C358.652 249.541 357.565 236.056 357.052 231.894C356.815 219.787 350.249 209.384 342.347 201.372C334.417 193.332 324.985 187.534 318.68 184.637L318.605 184.603L318.528 184.577C316.863 184.022 314.339 182.787 311.789 181.416C309.315 180.087 306.91 178.68 305.423 177.773C296.475 170.483 276.991 159.714 268.327 155.212C266.251 153.767 264.657 151.201 263.518 147.733C262.373 144.248 261.745 140.025 261.489 135.552C260.976 126.609 261.962 116.927 263.032 110.756L263.056 110.613ZM261.054 113.905C261.034 113.937 261.014 113.969 260.993 114H261.054V113.905ZM259.153 116.766C251.254 128.148 241.547 136 231.054 136C221.075 136 211.808 128.9 204.13 118.416C204.664 123.734 204.95 129.867 204.614 135.723C204.349 140.338 203.696 144.845 202.44 148.67C201.19 152.473 199.287 155.775 196.397 157.74L196.324 157.79L196.245 157.831C187.56 162.341 168.165 173.075 159.504 180.161L159.424 180.226L159.336 180.28C157.816 181.209 155.317 182.673 152.739 184.059C150.224 185.411 147.538 186.741 145.608 187.396C139.579 190.177 130.504 195.766 122.897 203.478C115.25 211.231 109.244 220.967 109.054 232.026L109.052 232.106L109.042 232.186C108.552 236.111 107.453 249.552 107.054 271.527L107.051 271.645L107.031 271.761C105.113 282.601 102.086 299.112 99.2375 313.418C97.8135 320.569 96.4318 327.181 95.2542 332.261C94.6657 334.799 94.1248 336.97 93.6521 338.641C93.2189 340.172 92.7962 341.464 92.3897 342.186C87.5939 352.796 76.3992 383.654 70.0339 422.244L70.0274 422.283L70.0188 422.322C68.1771 430.694 64.9101 443.239 61.0872 453.666C59.1795 458.87 57.1069 463.619 54.9695 467.068C53.903 468.789 52.7772 470.258 51.5926 471.298C50.4761 472.279 49.1654 473 47.7096 473.004C43.4187 474.002 36.9405 475.789 31.2358 477.953C28.3395 479.051 25.6884 480.229 23.6359 481.429C21.5045 482.675 20.3055 483.784 19.9158 484.629L19.8552 484.76L19.7706 484.877C14.6973 491.914 4.52841 506.042 3.36512 507.739C3.11616 508.295 2.99223 508.814 3.00036 509.184C3.00747 509.508 3.0914 509.552 3.15898 509.589L3.16378 509.591C3.36747 509.701 4.0124 509.876 5.52331 509.559C6.93738 509.261 8.91072 508.574 11.6024 507.293C13.0476 505.524 15.2214 503.029 17.3139 500.969C18.4086 499.891 19.5202 498.893 20.5179 498.181C21.0147 497.826 21.5282 497.509 22.0304 497.293C22.4961 497.093 23.1531 496.89 23.8479 497.029L24.2465 497.109L24.5503 497.379C24.8845 497.676 25.2713 498.062 25.6752 498.52C28.101 498.503 31.3302 498.295 34.5406 497.72C38.5478 497.003 42.4263 495.73 44.7158 493.631C44.9194 493.445 45.2357 493.459 45.4223 493.662C45.6089 493.866 45.5951 494.182 45.3916 494.369C42.8811 496.67 38.7596 497.981 34.7169 498.705C31.785 499.23 28.8421 499.455 26.4803 499.508C26.8573 500.009 27.2292 500.562 27.5684 501.155C28.5123 502.806 29.2934 504.925 29.0445 507.166L29.0198 507.389L28.9308 507.595C22.5826 522.296 9.64117 552.372 8.4582 555.527L8.44253 555.568L8.42442 555.609C7.79045 557.036 7.05314 559.18 6.84385 560.997C6.73787 561.916 6.78628 562.602 6.93498 563.035C7.05604 563.388 7.19862 563.49 7.41751 563.545L7.5439 563.576L7.66293 563.629C7.92772 563.747 8.71887 563.895 9.8069 563.256C10.8977 562.616 12.3452 561.138 13.6667 557.929L13.7008 557.846L13.7446 557.768L30.1058 528.516C29.379 528.061 28.8978 527.625 28.6537 527.3C28.488 527.079 28.5328 526.766 28.7537 526.6C28.9746 526.434 29.288 526.479 29.4537 526.7C29.6429 526.952 30.1981 527.46 31.2265 528.009C32.2428 528.551 33.6961 529.119 35.6518 529.51C35.9225 529.564 36.0982 529.827 36.044 530.098C35.9898 530.369 35.7264 530.544 35.4557 530.49C34.4773 530.295 33.6129 530.055 32.8559 529.794L19.9632 563.514C19.3282 565.346 18.6613 568.084 18.6538 570.392C18.6499 571.558 18.816 572.47 19.1196 573.082C19.388 573.624 19.7468 573.92 20.322 574.024L20.4988 574.056L20.6629 574.129C20.666 574.131 20.8373 574.199 21.2241 574.097C21.6063 573.996 22.1739 573.73 22.8854 573.115C24.3201 571.875 26.2069 569.328 28.161 564.443L28.1699 564.421L28.1795 564.399L42.1234 532.527C41.3868 532.068 40.8998 531.628 40.6537 531.3C40.488 531.079 40.5328 530.766 40.7537 530.6C40.9746 530.434 41.288 530.479 41.4537 530.7C41.6429 530.952 42.1981 531.46 43.2265 532.009C44.2428 532.551 45.6961 533.119 47.6518 533.51C47.9225 533.564 48.0982 533.827 48.044 534.098C47.9898 534.369 47.7264 534.544 47.4557 534.49C46.4804 534.295 45.6184 534.057 44.8632 533.797L32.9951 567.423C32.6029 569.101 32.3188 571.352 32.5721 572.924C32.7042 573.744 32.9353 574.076 33.0567 574.174L33.0578 574.175C33.0751 574.191 33.2638 574.366 34.0094 574.102C34.0489 574.07 34.113 574.013 34.203 573.922C34.4421 573.68 34.7806 573.277 35.2256 572.662C36.1119 571.436 37.3365 569.481 38.9379 566.555C42.1264 560.728 46.7503 551.158 53.1067 536.071C52.9853 536.011 52.8683 535.951 52.7559 535.891C51.6593 535.306 50.9645 534.714 50.6537 534.3C50.488 534.079 50.5328 533.766 50.7537 533.6C50.9746 533.434 51.288 533.479 51.4537 533.7C51.6429 533.952 52.1981 534.46 53.2265 535.009C54.2428 535.551 55.6961 536.119 57.6518 536.51C57.9225 536.564 58.0982 536.827 58.044 537.098C57.9898 537.369 57.7264 537.544 57.4557 537.49C56.9143 537.382 56.4079 537.26 55.9352 537.129L48.9991 561.901L48.9985 561.904C48.6009 563.336 48.2207 565.386 48.2898 566.959C48.3255 567.77 48.4737 568.237 48.6074 568.441C48.6359 568.485 48.6551 568.503 48.6632 568.51C48.6785 568.515 48.7379 568.528 48.8677 568.512C49.4353 568.441 51.9988 567.401 53.0921 562.663L53.1091 562.589L53.1335 562.517C56.052 553.929 60.5306 540.993 64.4811 530.101C66.4556 524.657 68.3028 519.711 69.7594 516.069C70.4864 514.252 71.1245 512.739 71.6376 511.645C71.8925 511.101 72.1302 510.632 72.3433 510.27C72.4488 510.092 72.566 509.909 72.6925 509.748C72.7042 509.733 72.7185 509.714 72.7351 509.694C72.7556 509.669 72.7798 509.64 72.8077 509.609C74.3929 505.926 77.2077 495.645 76.0595 482.632L76.0282 482.276L76.1601 481.945C79.9124 472.523 85.7662 458.063 91.1336 445.306C93.8169 438.928 96.382 432.967 98.504 428.271C100.58 423.677 102.297 420.142 103.296 418.682C109.101 409.218 121.634 385.133 125.58 364.222L125.603 364.101L125.645 363.985C130.064 351.894 136.845 333.828 142.824 318.929C145.812 311.483 148.608 304.807 150.814 300.057C151.913 297.691 152.884 295.76 153.673 294.444C154.055 293.807 154.436 293.241 154.805 292.835C153.38 288.162 151.608 281.776 150.165 275.328C148.441 267.626 147.138 259.632 147.558 254.38L147.562 254.329L147.57 254.277C148.066 250.971 148.736 245.683 149.133 240.584C149.332 238.034 149.46 235.549 149.466 233.393C149.472 231.208 149.352 229.462 149.092 228.337L152.015 227.663C152.356 229.138 152.473 231.171 152.466 233.401C152.46 235.659 152.326 238.225 152.124 240.816C151.723 245.974 151.048 251.306 150.545 254.67C150.177 259.422 151.372 266.984 153.092 274.672C154.698 281.849 156.72 288.958 158.193 293.635C165.581 314.775 173.946 370.659 150.481 431.966C144.358 454.531 135.812 512.6 150.497 564.592L150.527 564.697L150.541 564.805C153.127 584.492 156.755 616.167 159.236 647.231C161.714 678.245 163.063 708.805 161.044 726.173L161.017 726.4L160.924 726.609C158.712 731.587 155.768 745.069 154.502 769.166C153.24 793.182 153.652 827.589 158.042 874.304C159.877 885.156 162.426 901.854 164.119 916.756C164.967 924.216 165.603 931.252 165.824 936.888C165.935 939.704 165.944 942.198 165.819 944.234C165.703 946.135 165.463 947.805 164.985 948.967C164.428 951.395 163.817 955.216 163.766 958.896C163.74 960.767 163.859 962.554 164.182 964.08C164.509 965.626 165.017 966.773 165.669 967.497L165.859 967.708L165.958 967.973C166.576 969.62 167.136 973.599 164.826 977.295L164.814 977.314L164.802 977.332C163.574 979.173 160.475 985.107 158.513 993.347L158.503 993.39L158.49 993.431C158.165 994.516 157.217 996.309 155.506 998.538C153.772 1000.8 151.197 1003.58 147.525 1006.64C146.353 1007.66 144.484 1009.55 142.77 1011.86C141.038 1014.19 139.555 1016.82 139.02 1019.31L139.007 1019.38L138.989 1019.43C138.182 1022.1 137.439 1025.99 137.722 1029.08C137.865 1030.63 138.249 1031.78 138.827 1032.5C139.329 1033.13 140.08 1033.56 141.407 1033.51C141.592 1032.86 141.83 1032.16 142.119 1031.48C142.381 1030.86 142.691 1030.26 143.048 1029.75C143.401 1029.25 143.825 1028.81 144.33 1028.55C144.577 1028.43 144.877 1028.53 145.001 1028.78C145.124 1029.02 145.024 1029.32 144.777 1029.45C144.482 1029.59 144.173 1029.89 143.866 1030.33C143.562 1030.76 143.285 1031.29 143.039 1031.87C142.783 1032.47 142.568 1033.1 142.398 1033.68L142.693 1034.02C142.987 1034.37 143.653 1034.86 144.561 1035.01C145.409 1035.14 146.624 1034.99 148.133 1033.82L148.969 1033.17C149.184 1032.44 149.469 1031.66 149.831 1030.93C150.5 1029.58 151.515 1028.25 152.971 1028.01C153.244 1027.96 153.501 1028.15 153.547 1028.42C153.592 1028.69 153.408 1028.95 153.136 1028.99C152.193 1029.15 151.374 1030.07 150.726 1031.37C150.399 1032.03 150.137 1032.75 149.938 1033.42L150.395 1034.33C150.654 1034.85 151.3 1035.58 152.341 1035.89C153.333 1036.18 154.936 1036.16 157.268 1034.72L157.861 1034.36C158.157 1033.43 158.59 1032.3 159.147 1031.22C159.919 1029.73 160.98 1028.23 162.33 1027.55C162.577 1027.43 162.877 1027.53 163.001 1027.78C163.124 1028.02 163.024 1028.32 162.777 1028.45C161.727 1028.97 160.788 1030.22 160.035 1031.68C159.523 1032.67 159.119 1033.71 158.839 1034.58L159.225 1035.06C160.31 1036.42 163.456 1038.62 167.383 1036.66L168.506 1036.1C168.766 1035.05 169.131 1033.87 169.617 1032.71C170.516 1030.55 171.856 1028.36 173.776 1027.08C174.006 1026.93 174.317 1026.99 174.47 1027.22C174.623 1027.45 174.561 1027.76 174.331 1027.92C172.651 1029.04 171.408 1031.01 170.54 1033.09C169.945 1034.52 169.54 1035.96 169.292 1037.14L169.361 1037.26C169.976 1038.36 171.269 1039.76 173.057 1040.38C174.717 1040.96 177.034 1040.94 180.013 1038.9C182.478 1035.76 186.159 1030.61 189.333 1025.17C192.603 1019.57 195.187 1013.91 195.559 1009.88C195.644 1008.68 195.823 1006.85 196.085 1005.19C196.215 1004.36 196.372 1003.55 196.558 1002.86C196.651 1002.52 196.759 1002.19 196.887 1001.89C196.895 1001.87 196.904 1001.85 196.913 1001.83L196.931 1001.79C196.943 1001.76 196.956 1001.73 196.969 1001.71L196.983 1001.68C197.013 1001.62 197.045 1001.56 197.081 1001.49C197.319 997.422 197.523 991.164 197.392 985.12C197.323 981.993 197.166 978.942 196.88 976.291C196.591 973.612 196.181 971.444 195.649 970.027L195.587 969.861L195.565 969.686C195.47 968.924 195.414 967.727 195.551 966.53C195.668 965.501 195.96 964.152 196.775 963.178C197.474 961.466 198.407 957.097 196.654 952.538L196.543 952.251L196.555 951.944C197.222 934.187 198.422 906.851 199.856 882.549C200.573 870.4 201.349 858.999 202.147 849.93C202.932 841.001 203.75 834.164 204.591 831.158C207.586 814.988 212.63 775.913 209.066 748.191L209.06 748.144L209.057 748.096C208.542 740.034 210.082 716.476 220.127 685.537L220.131 685.526C221.915 680.171 225.345 665.258 224.555 649.073L224.554 649.039L224.554 649.005C224.47 625.917 224.52 591.282 224.941 562.416C225.152 547.985 225.455 534.982 225.882 525.58C226.095 520.885 226.34 517.061 226.622 514.399C226.763 513.077 226.917 511.992 227.094 511.215C227.18 510.84 227.288 510.452 227.441 510.128C227.457 510.095 227.475 510.058 227.495 510.019L227.505 510H235.602C235.627 510.046 235.648 510.089 235.667 510.128C235.819 510.452 235.928 510.84 236.013 511.215C236.19 511.992 236.345 513.077 236.485 514.399C236.768 517.061 237.013 520.885 237.226 525.58C237.652 534.982 237.956 547.985 238.166 562.416C238.587 591.282 238.637 625.917 238.554 649.005L238.554 649.039L238.552 649.073C237.762 665.258 241.192 680.171 242.977 685.526L242.98 685.537C253.025 716.476 254.565 740.034 254.051 748.096L254.048 748.144L254.041 748.191C250.477 775.913 255.521 814.988 258.516 831.158C259.357 834.164 260.175 841.001 260.96 849.93C261.758 858.999 262.534 870.4 263.251 882.549C264.685 906.851 265.886 934.187 266.553 951.944L266.564 952.251L266.454 952.538C264.7 957.097 265.633 961.466 266.333 963.178C267.147 964.152 267.439 965.501 267.557 966.53C267.693 967.727 267.637 968.924 267.542 969.686L267.52 969.861L267.458 970.027C266.927 971.444 266.517 973.612 266.228 976.291C265.942 978.942 265.784 981.993 265.716 985.12C265.584 991.164 265.788 997.422 266.026 1001.49C266.107 1001.63 266.17 1001.77 266.22 1001.89C266.349 1002.19 266.457 1002.52 266.549 1002.86C266.735 1003.55 266.892 1004.36 267.023 1005.19C267.284 1006.85 267.463 1008.68 267.549 1009.88C267.921 1013.91 270.505 1019.57 273.774 1025.17C276.949 1030.61 280.629 1035.76 283.094 1038.9C286.073 1040.94 288.39 1040.96 290.05 1040.38C291.838 1039.76 293.131 1038.36 293.746 1037.26L293.815 1037.14C293.568 1035.96 293.162 1034.52 292.567 1033.09C291.699 1031.01 290.456 1029.04 288.776 1027.92C288.547 1027.76 288.484 1027.45 288.638 1027.22C288.791 1026.99 289.101 1026.93 289.331 1027.08C291.251 1028.36 292.592 1030.55 293.49 1032.71C293.976 1033.87 294.342 1035.05 294.602 1036.1L295.725 1036.66C299.651 1038.62 302.798 1036.42 303.882 1035.06L304.268 1034.58C303.988 1033.71 303.585 1032.67 303.072 1031.68C302.319 1030.22 301.38 1028.97 300.33 1028.45C300.083 1028.32 299.983 1028.02 300.107 1027.78C300.23 1027.53 300.53 1027.43 300.777 1027.55C302.127 1028.23 303.188 1029.73 303.96 1031.22C304.518 1032.3 304.95 1033.43 305.247 1034.36L305.84 1034.72C308.172 1036.16 309.774 1036.18 310.766 1035.89C311.808 1035.58 312.454 1034.85 312.712 1034.33L313.169 1033.42C312.97 1032.75 312.708 1032.03 312.381 1031.37C311.733 1030.07 310.915 1029.15 309.971 1028.99C309.699 1028.95 309.515 1028.69 309.561 1028.42C309.606 1028.15 309.864 1027.96 310.136 1028.01C311.593 1028.25 312.608 1029.58 313.276 1030.93C313.638 1031.66 313.923 1032.44 314.138 1033.17L314.975 1033.82C316.484 1034.99 317.698 1035.14 318.546 1035.01C319.454 1034.86 320.12 1034.37 320.415 1034.02L320.709 1033.68C320.539 1033.1 320.324 1032.47 320.069 1031.87C319.823 1031.29 319.545 1030.76 319.242 1030.33C318.934 1029.89 318.625 1029.59 318.33 1029.45C318.083 1029.32 317.983 1029.02 318.107 1028.78C318.23 1028.53 318.53 1028.43 318.777 1028.55C319.282 1028.81 319.707 1029.25 320.06 1029.75C320.417 1030.26 320.726 1030.86 320.989 1031.48C321.277 1032.16 321.515 1032.86 321.7 1033.51C323.028 1033.56 323.779 1033.13 324.28 1032.5C324.859 1031.78 325.243 1030.63 325.385 1029.08C325.668 1025.99 324.926 1022.1 324.118 1019.43L324.1 1019.38L324.087 1019.31C323.552 1016.82 322.07 1014.19 320.337 1011.86C318.623 1009.55 316.755 1007.66 315.582 1006.64C311.91 1003.58 309.335 1000.8 307.601 998.538C305.891 996.309 304.942 994.516 304.617 993.431L304.605 993.39L304.594 993.347C302.632 985.107 299.533 979.173 298.306 977.332L298.293 977.314L298.282 977.295C295.971 973.599 296.532 969.62 297.149 967.973L297.249 967.708L297.439 967.497C298.09 966.773 298.598 965.626 298.925 964.08C299.248 962.554 299.368 960.767 299.341 958.896C299.29 955.216 298.679 951.395 298.122 948.967C297.645 947.805 297.405 946.135 297.288 944.234C297.163 942.198 297.172 939.704 297.283 936.888C297.505 931.252 298.141 924.216 298.988 916.756C300.681 901.854 303.23 885.156 305.065 874.304C309.455 827.589 309.867 793.182 308.606 769.166C307.34 745.069 304.395 731.587 302.183 726.609L302.09 726.4L302.064 726.173C300.044 708.805 301.393 678.245 303.871 647.231C306.353 616.167 309.98 584.492 312.566 564.805L312.581 564.697L312.61 564.592C327.295 512.6 318.749 454.531 312.626 431.966C289.161 370.659 297.526 314.776 304.914 293.635C306.387 288.958 308.409 281.849 310.015 274.672C311.736 266.984 312.93 259.422 312.563 254.67C312.059 251.306 311.385 245.974 310.983 240.816C310.782 238.225 310.648 235.659 310.641 233.401C310.635 231.171 310.751 229.138 311.092 227.663L314.015 228.337C313.756 229.462 313.635 231.208 313.641 233.393C313.647 235.549 313.776 238.034 313.974 240.584C314.371 245.683 315.041 250.971 315.537 254.277L315.545 254.329L315.549 254.38C315.969 259.632 314.666 267.626 312.943 275.328C311.5 281.776 309.728 288.162 308.303 292.835C308.671 293.241 309.053 293.807 309.435 294.444C310.223 295.76 311.195 297.691 312.294 300.057C314.499 304.807 317.296 311.483 320.283 318.929C326.262 333.828 333.043 351.894 337.463 363.985L337.505 364.101L337.528 364.222C341.473 385.133 354.006 409.218 359.812 418.682C360.81 420.142 362.528 423.677 364.603 428.271C366.725 432.967 369.291 438.928 371.974 445.306C377.341 458.063 383.195 472.523 386.947 481.945L387.079 482.276L387.048 482.632C385.9 495.645 388.714 505.926 390.3 509.609C390.312 509.622 390.323 509.635 390.334 509.648C390.368 509.688 390.395 509.722 390.415 509.748C390.541 509.909 390.659 510.092 390.764 510.27C390.977 510.632 391.215 511.101 391.47 511.645C391.983 512.739 392.621 514.252 393.348 516.069C394.805 519.711 396.652 524.657 398.626 530.101C402.577 540.993 407.055 553.929 409.974 562.517L409.998 562.589L410.015 562.663C411.109 567.401 413.672 568.441 414.24 568.512C414.37 568.528 414.429 568.515 414.444 568.51C414.452 568.503 414.472 568.485 414.5 568.441C414.634 568.237 414.782 567.77 414.818 566.959C414.887 565.386 414.507 563.336 414.109 561.904L414.108 561.901L407.172 537.129C406.7 537.26 406.193 537.382 405.652 537.49C405.381 537.544 405.118 537.369 405.063 537.098C405.009 536.827 405.185 536.564 405.456 536.51C407.411 536.119 408.865 535.551 409.881 535.009C410.909 534.46 411.464 533.952 411.654 533.7C411.819 533.479 412.133 533.434 412.354 533.6C412.575 533.766 412.619 534.079 412.454 534.3C412.143 534.714 411.448 535.306 410.352 535.891C410.239 535.951 410.122 536.011 410.001 536.071C416.357 551.158 420.981 560.728 424.17 566.555C425.771 569.481 426.995 571.436 427.882 572.662C428.327 573.277 428.665 573.68 428.904 573.922C428.933 573.951 428.959 573.976 428.982 573.999C429.033 574.047 429.071 574.08 429.098 574.102C429.844 574.366 430.032 574.191 430.05 574.175L430.051 574.174C430.172 574.076 430.403 573.744 430.535 572.924C430.789 571.352 430.504 569.101 430.112 567.423L418.244 533.797C417.489 534.057 416.627 534.295 415.652 534.49C415.381 534.544 415.118 534.369 415.063 534.098C415.009 533.827 415.185 533.564 415.456 533.51C417.411 533.119 418.865 532.551 419.881 532.009C420.909 531.46 421.464 530.952 421.654 530.7C421.819 530.479 422.133 530.434 422.354 530.6C422.575 530.766 422.619 531.079 422.454 531.3C422.208 531.628 421.721 532.068 420.984 532.527L434.928 564.399L434.938 564.421L434.946 564.443C436.9 569.328 438.787 571.875 440.222 573.115C440.933 573.73 441.501 573.996 441.883 574.097C442.27 574.199 442.441 574.131 442.445 574.129L442.609 574.056L442.785 574.024C443.361 573.92 443.719 573.624 443.988 573.082C444.291 572.47 444.457 571.558 444.454 570.392C444.446 568.084 443.779 565.346 443.144 563.514L430.251 529.794C429.495 530.055 428.63 530.295 427.652 530.49C427.381 530.544 427.118 530.369 427.063 530.098C427.009 529.827 427.185 529.564 427.456 529.51C429.411 529.119 430.865 528.551 431.881 528.009C432.909 527.46 433.464 526.952 433.654 526.7C433.819 526.479 434.133 526.434 434.354 526.6C434.575 526.766 434.619 527.079 434.454 527.3C434.21 527.625 433.728 528.061 433.002 528.516L449.363 557.768L449.407 557.846L449.441 557.929C450.762 561.138 452.21 562.616 453.301 563.256C454.389 563.895 455.18 563.747 455.444 563.629L455.564 563.576L455.69 563.545C455.909 563.49 456.051 563.388 456.172 563.035C456.321 562.602 456.37 561.916 456.264 560.997C456.054 559.18 455.317 557.036 454.683 555.609L454.665 555.568L454.649 555.527C453.466 552.372 440.525 522.296 434.177 507.595L434.088 507.389L434.063 507.166C433.814 504.925 434.595 502.806 435.539 501.155C435.878 500.562 436.25 500.009 436.627 499.508C434.265 499.455 431.322 499.23 428.391 498.705C424.348 497.981 420.226 496.67 417.716 494.369C417.512 494.182 417.499 493.866 417.685 493.662C417.872 493.459 418.188 493.445 418.392 493.631C420.681 495.73 424.56 497.003 428.567 497.72C431.777 498.295 435.006 498.503 437.432 498.52C437.836 498.062 438.223 497.676 438.557 497.379L438.861 497.109L439.26 497.029C439.954 496.89 440.611 497.093 441.077 497.293C441.579 497.509 442.093 497.826 442.589 498.181C443.587 498.893 444.699 499.891 445.793 500.969C447.886 503.029 450.06 505.524 451.505 507.293C454.197 508.574 456.17 509.261 457.584 509.559C459.095 509.876 459.74 509.701 459.944 509.591L459.948 509.589C460.016 509.552 460.1 509.508 460.107 509.184C460.115 508.814 459.991 508.295 459.742 507.739C458.579 506.042 448.41 491.914 443.337 484.877L443.252 484.76L443.192 484.629C442.802 483.784 441.603 482.675 439.471 481.429C437.419 480.229 434.768 479.051 431.872 477.953C426.167 475.789 419.689 474.002 415.398 473.004C413.942 473 412.631 472.279 411.515 471.298C410.33 470.258 409.204 468.789 408.138 467.068C406 463.619 403.928 458.87 402.02 453.666C398.197 443.239 394.93 430.694 393.089 422.322L393.08 422.283L393.074 422.244C386.708 383.654 375.514 352.796 370.718 342.186C370.311 341.464 369.889 340.172 369.455 338.641C368.983 336.97 368.442 334.799 367.853 332.261C366.676 327.181 365.294 320.569 363.87 313.418C361.021 299.112 357.994 282.601 356.077 271.761L356.056 271.645L356.054 271.527C355.654 249.552 354.556 236.111 354.065 232.186L354.055 232.106L354.054 232.026C353.863 220.967 347.857 211.231 340.211 203.478C332.604 195.766 323.528 190.177 317.499 187.396C315.569 186.741 312.883 185.411 310.368 184.059C307.791 182.673 305.292 181.209 303.771 180.28L303.683 180.226L303.604 180.161C294.943 173.075 275.548 162.341 266.862 157.831L266.784 157.79L266.71 157.74C263.82 155.775 261.917 152.473 260.668 148.67C259.411 144.845 258.758 140.338 258.494 135.723C258.123 129.25 258.51 122.44 259.153 116.766ZM201.114 114C201.094 113.969 201.074 113.937 201.054 113.905V114H201.114ZM272.822 96.86C271.811 97.4094 270.752 97.6311 269.594 97.4024C274.237 86.3492 277.399 74.4345 278.56 63.8565C280.771 65.2004 284.286 69.7106 281.594 81.1545C280.784 84.5585 279.088 89.4173 276.685 92.9872C275.481 94.7743 274.176 96.1247 272.822 96.86ZM192.542 97.4714C187.93 86.5093 184.775 74.6947 183.583 64.1741C181.389 65.8428 178.503 70.4853 181.013 81.1545C181.824 84.5585 183.519 89.4173 185.923 92.9872C187.126 94.7743 188.432 96.1247 189.785 96.86C190.658 97.3341 191.566 97.5642 192.542 97.4714ZM214.811 46.4701C205.471 44.135 199.412 46.8366 197.694 48.2682C197.27 48.6217 196.639 48.5644 196.285 48.1401C195.932 47.7159 195.989 47.0853 196.414 46.7317C198.696 44.83 205.436 42.0649 215.296 44.5298C215.832 44.6638 216.158 45.2067 216.024 45.7425C215.89 46.2783 215.347 46.604 214.811 46.4701ZM204.207 66.3476C202.219 67.1679 200.623 68.4363 199.672 69.5002C199.119 70.1176 198.171 70.1703 197.554 69.6179C196.936 69.0655 196.883 68.1172 197.436 67.4999C199.019 65.7302 201.91 63.5799 205.551 62.7962C209.275 61.9943 213.668 62.6535 218.025 66.3571C218.656 66.8937 218.733 67.8403 218.197 68.4715C217.66 69.1027 216.713 69.1795 216.082 68.643C214.579 67.3651 213.11 66.5423 211.705 66.0593C212.542 67.2213 213.054 68.7829 213.054 70.5C213.054 74.0899 210.815 77 208.054 77C205.292 77 203.054 74.0899 203.054 70.5C203.054 68.9211 203.487 67.4737 204.207 66.3476ZM221.533 103.748C221.413 103.04 220.796 102.5 220.054 102.5C219.225 102.5 218.554 103.172 218.554 104C218.554 104.81 218.988 105.49 219.526 105.979C220.072 106.475 220.829 106.881 221.779 107.198C223.668 107.828 226.606 108.199 231.054 108.002C235.502 108.199 238.439 107.828 240.328 107.198C241.278 106.881 242.035 106.475 242.581 105.979C243.119 105.49 243.554 104.81 243.554 104C243.554 103.172 242.882 102.5 242.054 102.5C241.311 102.5 240.694 103.04 240.575 103.748L240.563 103.759C240.422 103.887 240.079 104.119 239.379 104.352C237.98 104.819 235.443 105.197 231.14 105.002C231.123 105.001 231.105 105.001 231.087 105L231.067 105L231.054 105C231.025 105 230.996 105.001 230.967 105.002C226.664 105.197 224.128 104.819 222.728 104.352C222.028 104.119 221.685 103.887 221.544 103.759L221.533 103.748ZM221.484 103.698C221.481 103.694 221.48 103.692 221.48 103.692C221.48 103.692 221.482 103.694 221.484 103.698ZM240.623 103.698C240.626 103.694 240.628 103.692 240.628 103.692C240.627 103.692 240.626 103.694 240.623 103.698ZM264.414 48.2682C262.696 46.8366 256.637 44.135 247.296 46.4701C246.76 46.604 246.218 46.2783 246.084 45.7425C245.95 45.2067 246.275 44.6638 246.811 44.5298C256.671 42.0649 263.412 44.83 265.694 46.7317C266.118 47.0853 266.176 47.7159 265.822 48.1401C265.468 48.5644 264.838 48.6217 264.414 48.2682ZM256.901 66.3476C258.889 67.1679 260.484 68.4363 261.436 69.5002C261.988 70.1176 262.937 70.1703 263.554 69.6179C264.171 69.0655 264.224 68.1172 263.672 67.4999C262.088 65.7302 259.197 63.5799 255.557 62.7962C251.832 61.9943 247.439 62.6535 243.082 66.3571C242.451 66.8937 242.374 67.8403 242.911 68.4715C243.447 69.1027 244.394 69.1795 245.025 68.643C246.529 67.3651 247.998 66.5423 249.402 66.0593C248.566 67.2213 248.054 68.7829 248.054 70.5C248.054 74.0899 250.292 77 253.054 77C255.815 77 258.054 74.0899 258.054 70.5C258.054 68.9211 257.621 67.4737 256.901 66.3476ZM231.033 87.1221C231.518 87.3866 231.696 87.994 231.432 88.4789C230.96 89.3439 230.499 90.5507 230.479 91.4593C230.469 91.903 230.567 92.133 230.664 92.2445C230.739 92.3315 230.945 92.5 231.554 92.5C232.106 92.5 232.554 92.9477 232.554 93.5C232.554 94.0523 232.106 94.5 231.554 94.5C230.563 94.5 229.719 94.2102 229.15 93.5524C228.603 92.919 228.464 92.1178 228.479 91.4157C228.509 90.0327 229.148 88.4894 229.676 87.5211C229.94 87.0363 230.548 86.8576 231.033 87.1221ZM75.0546 511.597C75.0715 511.575 75.0697 511.581 75.0495 511.604L75.0546 511.597ZM159.131 195.997C165.538 195.498 175.623 194.849 185.051 194.524C189.765 194.362 194.306 194.281 198.137 194.34C201.947 194.399 204.981 194.596 206.785 194.965C208.243 195.477 210.581 196.177 212.97 196.656C215.343 197.131 217.958 197.43 219.796 196.97C220.332 196.836 220.658 196.293 220.524 195.757C220.39 195.222 219.847 194.896 219.311 195.03C217.949 195.37 215.731 195.169 213.363 194.694C211.045 194.23 208.766 193.544 207.387 193.057L207.324 193.035L207.26 193.021C205.255 192.599 202.02 192.4 198.168 192.341C194.291 192.281 189.713 192.363 184.982 192.526C175.518 192.851 165.403 193.502 158.976 194.003C158.425 194.046 158.014 194.527 158.057 195.078C158.1 195.628 158.581 196.04 159.131 195.997ZM224.954 296.566C225.194 297.063 224.985 297.661 224.488 297.901C201.721 308.878 178.777 302.485 170.086 297.884C169.598 297.625 169.411 297.02 169.67 296.532C169.928 296.044 170.533 295.858 171.022 296.116C179.33 300.515 201.586 306.722 223.619 296.099C224.117 295.859 224.715 296.068 224.954 296.566ZM105.225 349.03C104.965 348.936 104.678 349.07 104.584 349.329C104.489 349.589 104.623 349.876 104.883 349.97C106.678 350.623 111.294 352.732 115.241 355.89C115.457 356.063 115.772 356.028 115.944 355.812C116.117 355.597 116.082 355.282 115.866 355.11C111.814 351.868 107.096 349.711 105.225 349.03ZM206.705 692.524C206.968 692.607 207.114 692.888 207.03 693.152C206.445 694.992 205.491 697.802 204.532 700.257C204.053 701.483 203.568 702.63 203.125 703.525C202.904 703.972 202.688 704.366 202.484 704.678C202.29 704.976 202.071 705.256 201.831 705.416C201.601 705.569 201.291 705.507 201.138 705.277C200.984 705.048 201.047 704.737 201.276 704.584C201.336 704.544 201.462 704.414 201.647 704.132C201.821 703.865 202.017 703.51 202.229 703.081C202.654 702.224 203.126 701.108 203.6 699.893C204.55 697.464 205.496 694.675 206.077 692.848C206.161 692.585 206.442 692.44 206.705 692.524ZM174.674 698.175C174.854 697.965 175.169 697.941 175.379 698.12C177.75 700.153 183.177 705.914 186.016 712.81C186.121 713.065 185.999 713.357 185.744 713.462C185.489 713.568 185.197 713.446 185.091 713.19C182.331 706.486 177.024 700.847 174.728 698.88C174.519 698.7 174.494 698.384 174.674 698.175ZM256.402 692.524C256.139 692.607 255.993 692.888 256.077 693.152C256.663 694.992 257.616 697.802 258.576 700.257C259.055 701.483 259.539 702.63 259.982 703.525C260.204 703.972 260.419 704.366 260.624 704.678C260.817 704.976 261.036 705.256 261.276 705.416C261.506 705.569 261.817 705.507 261.97 705.277C262.123 705.048 262.061 704.737 261.831 704.584C261.771 704.544 261.645 704.414 261.461 704.132C261.287 703.865 261.091 703.51 260.878 703.081C260.454 702.224 259.982 701.108 259.507 699.893C258.558 697.464 257.611 694.675 257.03 692.848C256.946 692.585 256.665 692.44 256.402 692.524ZM287.728 698.12C287.938 697.941 288.254 697.965 288.433 698.175C288.613 698.384 288.589 698.7 288.379 698.88C286.084 700.847 280.777 706.486 278.016 713.19C277.911 713.446 277.619 713.568 277.363 713.462C277.108 713.357 276.986 713.065 277.091 712.81C279.931 705.914 285.357 700.153 287.728 698.12ZM358.524 349.329C358.429 349.07 358.142 348.936 357.883 349.03C356.011 349.711 351.294 351.868 347.241 355.11C347.026 355.282 346.991 355.597 347.163 355.812C347.336 356.028 347.65 356.063 347.866 355.89C351.814 352.732 356.429 350.623 358.225 349.97C358.484 349.876 358.618 349.589 358.524 349.329ZM238.619 297.901C238.122 297.661 237.913 297.063 238.153 296.566C238.393 296.068 238.991 295.859 239.488 296.099C261.521 306.722 283.777 300.515 292.086 296.116C292.574 295.858 293.179 296.044 293.438 296.532C293.696 297.02 293.51 297.625 293.022 297.884C284.33 302.485 261.386 308.878 238.619 297.901ZM278.057 194.524C287.485 194.849 297.57 195.498 303.976 195.997C304.527 196.04 305.008 195.628 305.051 195.078C305.094 194.527 304.682 194.046 304.131 194.003C297.704 193.502 287.589 192.851 278.126 192.526C273.394 192.363 268.817 192.281 264.94 192.341C261.087 192.4 257.852 192.599 255.848 193.021L255.783 193.035L255.721 193.057C254.341 193.544 252.062 194.23 249.745 194.694C247.377 195.169 245.158 195.37 243.796 195.03C243.26 194.896 242.718 195.222 242.584 195.757C242.45 196.293 242.775 196.836 243.311 196.97C245.149 197.43 247.764 197.131 250.138 196.656C252.527 196.177 254.864 195.477 256.323 194.965C258.126 194.596 261.161 194.399 264.971 194.34C268.801 194.281 273.342 194.362 278.057 194.524ZM388.042 511.584C388.04 511.582 388.044 511.586 388.053 511.597L388.058 511.604C388.048 511.593 388.043 511.586 388.042 511.584Z" fill="black"/>
</svg>
