<?xml version="1.0" encoding="UTF-8"?>
<svg id="Layer_2" data-name="Layer 2" xmlns="http://www.w3.org/2000/svg" viewBox="0 0 185.51 101.35">
  <defs>
    <style>
      .cls-1 {
        fill: #ffcc4e;
      }

      .cls-2 {
        fill: gray;
      }

      .cls-3 {
        fill: #62bb46;
      }

      .cls-4 {
        fill: #76ae61;
      }
    </style>
  </defs>
  <g id="Layer_1-2" data-name="Layer 1">
    <g>
      <g>
        <path class="cls-4" d="M139.56,25.73c-.47-.63-1.07-1.14-1.78-1.51-.71-.37-1.55-.55-2.51-.55-.61,0-1.19,.08-1.72,.23-.54,.15-1.04,.35-1.47,.58-.44,.23-.82,.5-1.13,.78-.31,.28-.55,.55-.7,.8l-.15,.24-.16-.24c-.26-.39-.54-.74-.84-1.03-.29-.3-.62-.55-.97-.75-.35-.2-.75-.36-1.18-.46-.43-.1-.92-.16-1.45-.16-.67,0-1.27,.07-1.77,.22-.5,.15-.93,.33-1.29,.56-.29,.18-.55,.39-.76,.61l-.32,.33v-1.46h-4.64v16.17h1.71c2.93,0,2.93-2.93,2.93-2.93v-6.45c.03-.43,.13-.81,.3-1.15,.17-.34,.38-.63,.63-.88,.26-.24,.55-.44,.86-.57,.7-.29,1.47-.25,2.05,.02,.31,.15,.58,.35,.81,.61,.22,.26,.39,.56,.5,.9,.11,.34,.17,.71,.17,1.1v9.36h1.6c2.61,0,2.89-2.33,2.92-2.83,0-.06,0-.09,0-.09h0v-6.43c0-.41,.07-.8,.22-1.15,.14-.35,.34-.65,.58-.89,.24-.25,.52-.44,.84-.58,.32-.14,.66-.21,1.01-.21,.39,0,.75,.07,1.07,.22,.32,.15,.6,.35,.82,.61,.22,.25,.4,.56,.52,.9,.12,.34,.19,.71,.19,1.1v9.36h1.59c2.93,0,2.93-2.93,2.93-2.93v-6.43c0-.98-.12-1.91-.36-2.77-.24-.85-.6-1.61-1.07-2.25Z"/>
        <path class="cls-4" d="M108.53,24.68c-1.17,0-2.13,.96-2.13,2.13s.96,2.13,2.13,2.13,2.13-.96,2.13-2.13-.96-2.13-2.13-2.13Z"/>
        <path class="cls-4" d="M108.53,35.08c-1.17,0-2.13,.96-2.13,2.13s.96,2.13,2.13,2.13,2.13-.96,2.13-2.13-.96-2.13-2.13-2.13Z"/>
        <path class="cls-4" d="M173.15,25.7l-.32-.34c-.24-.25-.49-.49-.76-.7-.26-.21-.55-.39-.86-.54-.31-.15-.66-.27-1.04-.35-.38-.08-.81-.12-1.27-.12-1.15,0-2.22,.22-3.19,.64-.97,.43-1.81,1.02-2.51,1.77-.7,.75-1.25,1.64-1.64,2.65-.39,1.01-.59,2.12-.59,3.3s.2,2.28,.59,3.3c.39,1.02,.95,1.91,1.64,2.66,.7,.75,1.54,1.34,2.51,1.78,.97,.43,2.04,.65,3.19,.65,.43,0,.85-.05,1.23-.16,.39-.11,.76-.25,1.1-.43,.34-.18,.66-.38,.95-.6,.29-.22,.55-.45,.78-.68l.31-.31v1.89h1.58c2.93,0,2.93-2.93,2.93-2.93V18.99h-4.64v6.71Zm.38,6.33v.18c-.03,.58-.16,1.12-.39,1.61-.23,.5-.54,.93-.92,1.3-.38,.37-.83,.66-1.34,.87-.51,.21-1.06,.31-1.64,.31s-1.13-.11-1.62-.34c-.48-.22-.91-.53-1.25-.91-.35-.38-.61-.84-.8-1.36-.18-.52-.28-1.08-.28-1.67s.09-1.13,.28-1.65c.18-.52,.45-.99,.8-1.39,.35-.4,.77-.72,1.25-.95,.49-.23,1.03-.35,1.62-.35s1.17,.12,1.7,.35c.52,.23,.98,.55,1.36,.95,.38,.4,.69,.86,.91,1.39,.22,.52,.33,1.08,.33,1.66Z"/>
        <path class="cls-4" d="M183.19,22.52c1.28,0,2.32-1.04,2.32-2.32s-1.04-2.32-2.32-2.32-2.32,1.04-2.32,2.32,1.04,2.32,2.32,2.32Z"/>
        <path class="cls-4" d="M180.87,40.1h1.71c2.93,0,2.93-2.93,2.93-2.93v-13.26h-4.64v16.19Z"/>
        <path class="cls-4" d="M158.03,27.51c-.35-.56-.77-1.09-1.25-1.56-.48-.47-1.02-.88-1.6-1.22-.58-.34-1.21-.6-1.87-.79-.66-.19-1.35-.28-2.05-.28-.77,0-1.51,.1-2.2,.31-.69,.2-1.34,.49-1.94,.85-.59,.36-1.13,.81-1.61,1.32-.48,.51-.89,1.08-1.22,1.69-.33,.61-.6,1.27-.78,1.97-.18,.7-.27,1.43-.27,2.18,0,1.19,.23,2.31,.69,3.33,.46,1.02,1.08,1.91,1.86,2.66,.78,.75,1.7,1.34,2.73,1.77,1.03,.42,2.15,.64,3.31,.64,1.04,0,2.04-.19,2.97-.58,.67-.27,1.3-.64,1.87-1.07l.07-.05c.21-.16,.41-.33,.59-.5,.08-.06,.14-.12,.22-.19,.16-.14,.31-.28,.47-.42l-2.2-2.49c-1.54,1.14-3.02,1.45-3.79,1.53h-.03c-.22,.02-.38,.03-.45,.03h-.04c-.36,0-.74-.05-1.15-.15-.41-.1-.8-.27-1.16-.5-.37-.23-.69-.55-.97-.94-.28-.4-.47-.89-.56-1.47l-.03-.21h11.48v-1.34c0-.21,0-.45,0-.72,0-.67-.1-1.34-.28-1.97-.19-.64-.46-1.24-.81-1.81Zm-10.31,2.5l.12-.26c.14-.31,.33-.61,.56-.91,.23-.3,.49-.57,.78-.8,.29-.24,.61-.43,.94-.57,.34-.14,.69-.22,1.05-.22,.49,0,.92,.06,1.29,.19,.37,.13,.7,.31,.99,.54,.28,.23,.54,.49,.76,.79,.22,.29,.42,.62,.61,.96l.14,.27h-7.25Z"/>
        <polygon class="cls-2" points="47.34 91.02 45.95 91.02 45.95 98.34 47.34 98.34 47.34 94.96 48.7 94.96 48.7 93.74 47.34 93.74 47.34 91.02"/>
        <polygon class="cls-2" points="42.35 97.72 40.94 97.72 40.94 101.22 47.59 101.22 47.59 100.03 42.35 100.03 42.35 97.72"/>
        <path class="cls-2" d="M41.97,95.44c.13-.14,.2-.25,.23-.35h.01c.04,.1,.12,.2,.26,.32,.13,.12,.3,.26,.49,.41,.26,.21,.51,.41,.75,.6,.24,.18,.47,.35,.69,.51l.81-.98c-.27-.19-.54-.39-.81-.6-.27-.21-.54-.43-.81-.65-.15-.13-.27-.25-.36-.36-.09-.11-.16-.23-.22-.36-.05-.13-.09-.27-.11-.42-.02-.16-.03-.33-.03-.53v-1.55h-1.42v1.61c0,.38-.06,.7-.17,.95-.11,.26-.3,.52-.57,.78-.26,.24-.53,.49-.83,.75-.29,.26-.58,.49-.87,.71l.87,1.02c.35-.28,.65-.53,.9-.74,.25-.21,.5-.44,.75-.68,.17-.16,.32-.3,.45-.44Z"/>
        <path class="cls-2" d="M60.7,101.35h6.55v-3.78h-6.55v3.78Zm1.39-2.63h3.78v1.48h-3.78v-1.48Z"/>
        <path class="cls-2" d="M62.74,96.69c.47-.01,.89-.03,1.26-.05s.73-.05,1.06-.09l-.12-1.14c-.7,.07-1.4,.11-2.08,.13-.69,.02-1.42,.03-2.21,.03v-.91h3.35v-3.17h-4.72v1.15h3.35v.91h-3.35v3.17c.71,0,1.35,0,1.91,0,.57,0,1.08-.01,1.55-.02Z"/>
        <rect class="cls-2" x="65.85" y="91.02" width="1.4" height="6.08"/>
        <rect class="cls-2" x="85.47" y="91.02" width="1.41" height="10.31"/>
        <path class="cls-2" d="M83.77,97.27c-.14-.14-.28-.27-.41-.4-.13-.13-.24-.25-.34-.36-.15-.16-.27-.32-.38-.47-.1-.15-.19-.3-.25-.46-.06-.16-.11-.33-.14-.5-.03-.18-.04-.37-.04-.59v-.85h2.07v-1.2h-2.07v-1.36h-1.42v1.36h-2.17v1.2h2.17v.85c0,.22-.01,.42-.04,.59-.03,.17-.07,.34-.14,.5-.07,.16-.16,.32-.27,.47-.11,.16-.25,.33-.41,.51-.49,.53-1.04,1.07-1.64,1.61l.92,.94c.31-.28,.58-.53,.8-.76,.22-.23,.44-.45,.64-.66,.18-.19,.36-.38,.52-.58,.16-.19,.27-.34,.32-.44h.02c.04,.09,.13,.22,.27,.38,.14,.17,.33,.36,.55,.59,.21,.21,.43,.44,.67,.67,.24,.23,.47,.46,.71,.68l.9-.93c-.14-.13-.28-.26-.43-.39-.14-.14-.29-.27-.43-.41Z"/>
        <polygon class="cls-2" points="97.72 98.09 99.98 98.09 99.98 101.3 101.37 101.3 101.37 98.09 103.52 98.09 103.52 101.3 104.9 101.3 104.9 98.09 107.17 98.09 107.17 96.9 97.72 96.9 97.72 98.09"/>
        <path class="cls-2" d="M99.91,95.54c.32,.19,.69,.33,1.12,.43,.43,.1,.9,.14,1.41,.14s.98-.05,1.41-.14c.43-.1,.8-.24,1.12-.43,.32-.19,.57-.42,.74-.7,.18-.28,.27-.59,.27-.95v-.47c0-.35-.09-.67-.27-.94-.18-.27-.43-.5-.74-.69-.32-.19-.69-.33-1.12-.43-.43-.1-.9-.15-1.41-.15s-.98,.05-1.41,.15c-.43,.1-.8,.24-1.12,.43-.32,.19-.57,.42-.74,.69-.18,.27-.27,.59-.27,.94v.47c0,.36,.09,.67,.27,.95,.18,.28,.43,.51,.74,.7Zm.37-2.05c0-.17,.06-.32,.17-.46,.11-.14,.26-.25,.45-.34,.19-.09,.42-.16,.68-.22,.26-.05,.55-.08,.86-.08s.6,.03,.86,.08c.26,.05,.49,.12,.68,.22,.19,.09,.34,.21,.45,.34,.11,.14,.17,.29,.17,.46v.33c0,.17-.06,.32-.17,.46-.11,.14-.26,.25-.45,.34-.19,.09-.42,.16-.68,.22-.26,.05-.55,.08-.86,.08s-.6-.03-.86-.08c-.26-.05-.49-.12-.68-.22-.19-.09-.34-.21-.45-.34-.11-.14-.17-.29-.17-.46v-.33Z"/>
        <rect class="cls-2" x="117.24" y="98.85" width="9.45" height="1.19"/>
        <path class="cls-2" d="M125.72,96.04h-1.3v-2.99h1.21v-1.18h-7.36v1.18h1.25v2.99h-1.32v1.18h7.52v-1.18Zm-2.69,0h-2.11v-2.99h2.11v2.99Z"/>
        <polygon class="cls-2" points="142.18 97.46 145.12 97.46 145.12 96.29 139.42 96.29 139.42 95.19 144.88 95.19 144.88 91.75 137.99 91.75 137.99 92.93 143.49 92.93 143.49 94.03 138.02 94.03 138.02 97.46 140.78 97.46 140.78 98.86 136.76 98.86 136.76 100.04 146.21 100.04 146.21 98.86 142.18 98.86 142.18 97.46"/>
        <rect class="cls-2" x="156.28" y="98.85" width="9.45" height="1.19"/>
        <path class="cls-2" d="M162.95,94.07c0,.32,0,.63-.02,.94-.01,.31-.03,.62-.06,.93-.03,.31-.06,.63-.11,.96-.05,.33-.11,.67-.17,1.03l1.39,.17c.06-.33,.11-.65,.16-.95,.05-.3,.09-.62,.12-.95,.03-.33,.05-.7,.07-1.09,.01-.4,.02-.86,.02-1.38v-1.76h-6.94v1.23h5.55v.9Z"/>
        <polygon class="cls-2" points="183.25 93.42 182.39 93.42 182.39 91.15 181.07 91.15 181.07 97.08 182.39 97.08 182.39 94.63 183.25 94.63 183.25 97.1 184.58 97.1 184.58 91.02 183.25 91.02 183.25 93.42"/>
        <path class="cls-2" d="M177.89,101.35h6.69v-3.78h-6.69v3.78Zm1.39-2.63h3.91v1.48h-3.91v-1.48Z"/>
        <path class="cls-2" d="M180.64,96.59l-.13-1.1c-.47,.06-.97,.1-1.52,.12-.55,.02-1.09,.03-1.63,.03v-.93h2.67v-3.14h-3.98v1.12h2.67v.93h-2.67v3.14c1.12,0,2.04-.01,2.78-.04,.74-.03,1.34-.07,1.81-.14Z"/>
      </g>
      <g>
        <path class="cls-4" d="M107.2,51.89c-1.73-1.73-3.79-3.1-6.13-4.09-2.34-.99-4.87-1.49-7.52-1.49-1.8,0-3.55,.23-5.2,.68-1.65,.45-3.21,1.09-4.64,1.91-1.43,.82-2.74,1.83-3.9,2.99-1.16,1.16-2.17,2.47-3,3.89-.83,1.42-1.48,2.98-1.94,4.64-.46,1.66-.69,3.41-.69,5.21s.23,3.55,.69,5.2c.46,1.65,1.11,3.22,1.94,4.64,.83,1.43,1.84,2.74,3,3.9,1.16,1.16,2.47,2.17,3.9,3,1.43,.83,2.99,1.48,4.64,1.93,3.28,.89,7.06,.9,10.34,0,1.63-.45,3.18-1.1,4.61-1.93,1.43-.83,2.74-1.84,3.9-3,1.16-1.16,2.17-2.48,3-3.9,.83-1.43,1.48-2.99,1.94-4.64,.46-1.65,.69-3.4,.69-5.2,0-2.72-.51-5.28-1.52-7.61-1.01-2.34-2.4-4.4-4.12-6.13Zm-5.44,17.59c-.41,1.2-1,2.26-1.77,3.14-.77,.89-1.72,1.59-2.82,2.11-1.1,.52-2.35,.78-3.72,.78s-2.68-.26-3.8-.78c-1.12-.51-2.09-1.22-2.88-2.1-.79-.88-1.4-1.93-1.83-3.13-.43-1.19-.64-2.49-.64-3.86s.22-2.61,.64-3.81c.43-1.21,1.04-2.28,1.82-3.2,.79-.92,1.76-1.66,2.88-2.2,1.13-.54,2.41-.81,3.81-.81s2.61,.27,3.72,.81c1.1,.54,2.05,1.28,2.82,2.2,.76,.92,1.35,2,1.76,3.2,.4,1.2,.61,2.48,.61,3.81s-.21,2.66-.61,3.85Z"/>
        <path class="cls-4" d="M182.99,55.21c-.8-1.3-1.77-2.51-2.89-3.61-1.11-1.09-2.36-2.04-3.69-2.83-1.34-.78-2.79-1.39-4.31-1.82-1.52-.43-3.11-.65-4.73-.65-1.78,0-3.49,.24-5.09,.71-1.6,.47-3.11,1.13-4.47,1.97-1.37,.84-2.62,1.86-3.72,3.04-1.1,1.18-2.06,2.5-2.83,3.9-.77,1.41-1.38,2.94-1.8,4.55-.42,1.61-.63,3.3-.63,5.02,0,2.76,.53,5.34,1.59,7.68,1.06,2.35,2.5,4.41,4.3,6.14,1.8,1.73,3.92,3.1,6.31,4.08,2.39,.98,4.96,1.47,7.63,1.47,2.4,0,4.7-.45,6.85-1.34,1.54-.63,2.99-1.47,4.32-2.47l.15-.11c.49-.37,.94-.76,1.36-1.14,.19-.14,.33-.27,.5-.45,.36-.32,.73-.64,1.09-.97l-5.07-5.74c-3.55,2.64-6.98,3.34-8.75,3.53h-.07c-.51,.06-.87,.06-1.04,.06h-.08s0,0,0,0c-.82,0-1.72-.11-2.65-.34-.94-.23-1.85-.62-2.68-1.15-.85-.54-1.6-1.27-2.24-2.17-.65-.91-1.08-2.06-1.29-3.4l-.08-.49h26.51v-3.1c0-.49,.02-1.04,.02-1.65,0-1.56-.22-3.09-.66-4.56-.44-1.47-1.07-2.88-1.87-4.17Zm-23.81,5.78l.28-.6c.33-.71,.77-1.41,1.3-2.1,.53-.69,1.14-1.31,1.8-1.84,.67-.54,1.4-.98,2.16-1.31,.78-.33,1.6-.5,2.44-.5,1.13,0,2.13,.15,2.98,.44,.85,.3,1.63,.71,2.29,1.24,.66,.52,1.25,1.14,1.76,1.82,.5,.68,.97,1.42,1.4,2.22l.33,.62h-16.75Z"/>
        <path class="cls-4" d="M146.19,50.08c-.43-.32-.81-.58-1.08-.77l-.51-.34c-.3-.21-.61-.41-.89-.59-.73-.46-1.47-.85-2.2-1.15-.73-.3-1.52-.53-2.34-.68-.83-.15-1.78-.23-2.83-.23-.99,0-1.87,.15-2.63,.44-.77,.3-1.5,.69-2.14,1.16-.66,.48-1.28,1.04-1.85,1.66-.59,.64-1.19,1.29-1.79,1.95l-.73,.81v-5.42h-9.21v37.38h3.92c6.76,0,6.76-6.76,6.76-6.76v-17.04l.06-.1c.43-.69,.86-1.33,1.28-1.9,.44-.59,.92-1.1,1.42-1.52,.52-.43,1.1-.77,1.73-1,.64-.24,1.38-.36,2.21-.36,.14,0,.36,0,.68,.03,.4,.03,.8,.09,1.16,.17,1.59,.31,3.89,1.1,6.03,3.06l4.47-7.62c-.3-.24-.6-.47-.88-.68-.21-.2-.41-.35-.65-.49Z"/>
        <path class="cls-3" d="M25.65,67.03c9.63,.06,12.48-7.67,10.16-13.75-6.03,6.16-9.92,1.95-10.16,13.75Z"/>
        <path class="cls-3" d="M61.53,17.94c-6.46,7.54-11.25,3-10.63,16.58,11.07-.67,13.76-9.77,10.63-16.58Z"/>
        <path class="cls-3" d="M81.67,7.73c-6.69,3.61-8.86-.95-12.15,8.93,8.09,2.56,12.51-3.2,12.15-8.93Z"/>
        <path class="cls-3" d="M80.92,31.73c7.64-4.18,10.15,1.03,13.85-10.3-9.28-2.88-14.3,3.74-13.85,10.3Z"/>
        <path class="cls-3" d="M47.54,18.64c6.6-11.1,.56-9.43-1.47-18.64-5.67,4.3-7.5,13.12,1.47,18.64Z"/>
        <path class="cls-3" d="M30.98,31.42c-1.92-8.05-8.96-8.84-13.56-5.66,6.38,3.77,3.66,7.88,13.56,5.66Z"/>
        <path class="cls-1" d="M0,25.24c5.38,5.54,1.52,8.92,12.08,9.4,.27-8.62-6.59-11.34-12.08-9.4Z"/>
        <path class="cls-3" d="M2.32,39.82c-.75,5.17,2.83,10.73,10.37,9-2.26-9.21-4.56-5.23-10.37-9Z"/>
        <path class="cls-1" d="M67.45,36.44c11.44-3.35,6.31-6.03,10.72-13.53-6.54-.65-13.32,4.16-10.72,13.53Z"/>
        <path class="cls-1" d="M33.55,19.14c3.8-9.68-.79-7.57-3.61-14.62-3.94,4.16-4.24,11.41,3.61,14.62Z"/>
        <path class="cls-1" d="M78.17,37.92c4.24,8.05,11.95,6.99,15.99,2.35-7.82-2.29-6.04-7.4-15.99-2.35Z"/>
        <path class="cls-1" d="M12.09,53.65c4.99,3.73,12.84,3.14,15.32-5.74-10.92-2.87-8.07,1.81-15.32,5.74Z"/>
        <path class="cls-1" d="M56.22,15.56c9.12-1.54,10.54-9.33,7.34-14.7-4.69,6.83-9.06,3.49-7.34,14.7Z"/>
        <circle class="cls-4" cx="41.93" cy="30.71" r="5.54" transform="translate(-9.43 38.64) rotate(-45)"/>
        <path class="cls-4" d="M49.13,49.23c-.12-.26-.21-.51-.29-.74,6.7-.55,14.59-3.03,23.45-9.01,.73-.47,1.44-.96,2.15-1.49-25.59,5.86-49.25-.95-56.13-4.54-.78-.36-1.51-.75-2.17-1.17-.31-.19-.59-.4-.87-.6-.16-.11-.24-.16-.24-.16,0,0,3.61,4.86,9.55,9.55,0,0,1.57,1.51,4.5,3.17,2.6,1.63,5.49,3.07,8.6,4.06,.17,.06,.42,1.23,.47,1.39,.37,1.2,.69,2.41,.96,3.63,1.44,6.63,1.42,13.42,1.42,20.2v11.68h4.04c6.76,0,6.76-6.76,6.76-6.76v-8.88s0-6.72,0-6.72c-.02,0-.03,0-.05,0,3.94,.69,13.28,1.73,19.98-2.21,.7-.41,1.38-.87,2.01-1.4-17.25,.15-22.54-6.38-24.14-10Z"/>
        <path class="cls-1" d="M8.98,12.88c5.38,5.54,1.52,8.92,12.08,9.4,.27-8.62-6.59-11.34-12.08-9.4Z"/>
      </g>
    </g>
  </g>
</svg>