<svg width="174" height="45" viewBox="0 0 174 45" fill="none" xmlns="http://www.w3.org/2000/svg">
<circle cx="85.5" cy="22.5" r="22" fill="#41B946" stroke="#41B946"/>
<path d="M0.292893 22.2929C-0.0976311 22.6834 -0.0976311 23.3166 0.292893 23.7071L6.65685 30.0711C7.04738 30.4616 7.68054 30.4616 8.07107 30.0711C8.46159 29.6805 8.46159 29.0474 8.07107 28.6569L2.41421 23L8.07107 17.3431C8.46159 16.9526 8.46159 16.3195 8.07107 15.9289C7.68054 15.5384 7.04738 15.5384 6.65685 15.9289L0.292893 22.2929ZM172.714 23.7071C173.104 23.3166 173.104 22.6834 172.714 22.2929L166.35 15.9289C165.959 15.5384 165.326 15.5384 164.936 15.9289C164.545 16.3195 164.545 16.9526 164.936 17.3431L170.592 23L164.936 28.6569C164.545 29.0474 164.545 29.6805 164.936 30.0711C165.326 30.4616 165.959 30.4616 166.35 30.0711L172.714 23.7071ZM1 24H1.49711V22H1V24ZM2.49134 24H3.48556V22H2.49134V24ZM4.47979 24H5.47401V22H4.47979V24ZM6.46824 24H7.46246V22H6.46824V24ZM8.45668 24H9.45091V22H8.45668V24ZM10.4451 24H11.4394V22H10.4451V24ZM12.4336 24H13.4278V22H12.4336V24ZM14.422 24H15.4163V22H14.422V24ZM16.4105 24H17.4047V22H16.4105V24ZM18.3989 24H19.3932V22H18.3989V24ZM20.3874 24H21.3816V22H20.3874V24ZM22.3758 24H23.3701V22H22.3758V24ZM24.3643 24H25.3585V22H24.3643V24ZM26.3527 24H27.347V22H26.3527V24ZM28.3412 24H29.3354V22H28.3412V24ZM30.3296 24H31.3239V22H30.3296V24ZM32.3181 24H33.3123V22H32.3181V24ZM34.3065 24H35.3008V22H34.3065V24ZM36.295 24H37.2892V22H36.295V24ZM38.2834 24H39.2776V22H38.2834V24ZM40.2719 24H41.2661V22H40.2719V24ZM42.2603 24H43.2545V22H42.2603V24ZM44.2488 24H45.243V22H44.2488V24ZM46.2372 24H47.2314V22H46.2372V24ZM48.2257 24H49.2199V22H48.2257V24ZM50.2141 24H51.2083V22H50.2141V24ZM52.2026 24H53.1968V22H52.2026V24ZM54.191 24H55.1852V22H54.191V24ZM56.1795 24H57.1737V22H56.1795V24ZM58.1679 24H59.1621V22H58.1679V24ZM60.1564 24H61.1506V22H60.1564V24ZM62.1448 24H63.139V22H62.1448V24ZM64.1333 24H65.1275V22H64.1333V24ZM66.1217 24H67.1159V22H66.1217V24ZM68.1102 24H69.1044V22H68.1102V24ZM70.0986 24H71.0928V22H70.0986V24ZM72.0871 24H73.0813V22H72.0871V24ZM74.0755 24H75.0697V22H74.0755V24ZM76.064 24H77.0582V22H76.064V24ZM78.0524 24H79.0466V22H78.0524V24ZM80.0409 24H81.0351V22H80.0409V24ZM82.0293 24H83.0235V22H82.0293V24ZM84.0178 24H85.012V22H84.0178V24ZM86.0062 24H87.0004V22H86.0062V24ZM87.9947 24H88.9889V22H87.9947V24ZM89.9831 24H90.9773V22H89.9831V24ZM91.9715 24H92.9658V22H91.9715V24ZM93.96 24H94.9542V22H93.96V24ZM95.9484 24H96.9427V22H95.9484V24ZM97.9369 24H98.9311V22H97.9369V24ZM99.9254 24H100.92V22H99.9254V24ZM101.914 24H102.908V22H101.914V24ZM103.902 24H104.896V22H103.902V24ZM105.891 24H106.885V22H105.891V24ZM107.879 24H108.873V22H107.879V24ZM109.868 24H110.862V22H109.868V24ZM111.856 24H112.85V22H111.856V24ZM113.844 24H114.839V22H113.844V24ZM115.833 24H116.827V22H115.833V24ZM117.821 24H118.816V22H117.821V24ZM119.81 24H120.804V22H119.81V24ZM121.798 24H122.793V22H121.798V24ZM123.787 24H124.781V22H123.787V24ZM125.775 24H126.769V22H125.775V24ZM127.764 24H128.758V22H127.764V24ZM129.752 24H130.746V22H129.752V24ZM131.741 24H132.735V22H131.741V24ZM133.729 24H134.723V22H133.729V24ZM135.717 24H136.712V22H135.717V24ZM137.706 24H138.7V22H137.706V24ZM139.694 24H140.689V22H139.694V24ZM141.683 24H142.677V22H141.683V24ZM143.671 24H144.666V22H143.671V24ZM145.66 24H146.654V22H145.66V24ZM147.648 24H148.643V22H147.648V24ZM149.637 24H150.631V22H149.637V24ZM151.625 24H152.619V22H151.625V24ZM153.614 24H154.608V22H153.614V24ZM155.602 24H156.596V22H155.602V24ZM157.591 24H158.585V22H157.591V24ZM159.579 24H160.573V22H159.579V24ZM161.568 24H162.562V22H161.568V24ZM163.556 24H164.55V22H163.556V24ZM165.544 24H166.539V22H165.544V24ZM167.533 24H168.527V22H167.533V24ZM169.521 24H170.516V22H169.521V24ZM171.51 24H172.007V22H171.51V24Z" fill="#41B946"/>
</svg>
