<svg width="1866" height="365" viewBox="0 0 1866 365" fill="none" xmlns="http://www.w3.org/2000/svg">
<path fill-rule="evenodd" clip-rule="evenodd" d="M276 314.206H461.818C467.303 314.206 470.657 308.183 467.769 303.52L282.452 4.31418C280.983 1.94392 278.453 0.845049 276 1.01758V314.206Z" fill="#7CB142"/>
<path fill-rule="evenodd" clip-rule="evenodd" d="M276.829 314.206H91.0112C85.526 314.206 82.1719 308.183 85.0602 303.52L270.378 4.31418C271.846 1.94392 274.376 0.845049 276.829 1.01758V314.206Z" fill="#71A13D"/>
<path fill-rule="evenodd" clip-rule="evenodd" d="M244 46.2647L265.725 59C268.493 60.4655 274.538 61.5491 277.053 54.5113V0.0175696C274.6 -0.154965 272.07 0.943901 270.602 3.31417L244 46.2647Z" fill="#F9EE14"/>
<path fill-rule="evenodd" clip-rule="evenodd" d="M309.053 46.2647L287.328 59C284.56 60.4655 278.515 61.5491 276 54.5113V0.0175602C278.453 -0.154974 280.983 0.943892 282.451 3.31416L309.053 46.2647Z" fill="#FDF119"/>
<path fill-rule="evenodd" clip-rule="evenodd" d="M446.505 314.206H573.775C577.532 314.206 579.829 310.081 577.851 306.887L450.923 101.955C449.918 100.331 448.185 99.5788 446.505 99.697V314.206Z" fill="#487F29"/>
<path fill-rule="evenodd" clip-rule="evenodd" d="M447.072 314.206H319.802C316.045 314.206 313.748 310.081 315.726 306.887L442.654 101.955C443.659 100.331 445.392 99.5788 447.072 99.697V314.206Z" fill="#487F29"/>
<path fill-rule="evenodd" clip-rule="evenodd" d="M424.587 130.688L439.467 139.41C441.363 140.414 445.503 141.156 447.226 136.336V99.012C445.546 98.8939 443.813 99.6465 442.807 101.27L424.587 130.688Z" fill="#F9EE14"/>
<path fill-rule="evenodd" clip-rule="evenodd" d="M469.144 130.687L454.263 139.41C452.368 140.414 448.228 141.156 446.505 136.337V99.012C448.185 98.8939 449.918 99.6465 450.923 101.27L469.144 130.687Z" fill="#FDF119"/>
<path fill-rule="evenodd" clip-rule="evenodd" d="M598.642 314.073H758.951C763.684 314.073 766.577 308.877 764.085 304.854L604.208 46.7219C602.941 44.6769 600.758 43.7289 598.642 43.8779V314.073Z" fill="#BFDB7D"/>
<path fill-rule="evenodd" clip-rule="evenodd" d="M599.358 314.073H439.049C434.317 314.073 431.423 308.877 433.915 304.854L593.792 46.722C595.059 44.6771 597.242 43.7291 599.358 43.8779V314.073Z" fill="#AEC873"/>
<path fill-rule="evenodd" clip-rule="evenodd" d="M571.036 82.9136L589.778 93.9005C592.166 95.1649 597.382 96.0999 599.552 90.0266V43.0151C597.435 42.8661 595.252 43.8141 593.986 45.8591L571.036 82.9136Z" fill="#F9EE14"/>
<path fill-rule="evenodd" clip-rule="evenodd" d="M627.158 82.9137L608.416 93.9005C606.028 95.1648 600.813 96.0997 598.643 90.0279V43.015C600.759 42.8664 602.941 43.8144 604.208 45.8591L627.158 82.9137Z" fill="#FDF119"/>
<path d="M661 314V169L765.5 112V314H661Z" fill="#D3D4D6"/>
<path d="M869.5 314V169L765 112V314H869.5Z" fill="#E8E9EA"/>
<rect x="769.506" y="94" width="20" height="178.365" rx="10" transform="rotate(62.7055 769.506 94)" fill="#9D8E81"/>
<rect width="20" height="178.365" rx="10" transform="matrix(-0.458564 0.888661 0.888661 0.458564 761.171 94)" fill="#9D8E81"/>
<rect width="20" height="69" rx="10" transform="matrix(-1 -8.74228e-08 -8.74228e-08 1 856 85)" fill="#9D8E81"/>
<rect x="731.409" y="182.409" width="34.0909" height="34.0909" fill="white" stroke="#C9C9C9" stroke-width="6.81818"/>
<rect x="765.5" y="182.409" width="34.0909" height="34.0909" fill="white" stroke="#C9C9C9" stroke-width="6.81818"/>
<rect x="731.409" y="216.5" width="34.0909" height="34.0909" fill="white" stroke="#C9C9C9" stroke-width="6.81818"/>
<rect x="765.5" y="216.5" width="34.0909" height="34.0909" fill="white" stroke="#C9C9C9" stroke-width="6.81818"/>
<path d="M1478 226.5C1478 251.353 1457.85 271.5 1433 271.5C1408.15 271.5 1388 251.353 1388 226.5C1388 201.647 1416.5 147 1433 147C1449 147 1478 201.647 1478 226.5Z" fill="#7DB342"/>
<path d="M1433 305H1421C1422.24 251.797 1429.52 238.165 1433 238V305Z" fill="#663A1A"/>
<path d="M1433 305H1445C1443.76 251.797 1436.48 238.165 1433 238V305Z" fill="#663A1A"/>
<path d="M1413.96 210.018C1413.96 240.66 1389.12 265.5 1358.48 265.5C1327.84 265.5 1303 240.66 1303 210.018C1303 179.376 1338.14 112 1358.48 112C1378.21 112 1413.96 179.376 1413.96 210.018Z" fill="#BFDB7D"/>
<path d="M1358 305H1344C1345.45 240.68 1353.94 224.2 1358 224V305Z" fill="#875827"/>
<path d="M1358 305H1373C1371.45 240.68 1362.35 224.2 1358 224V305Z" fill="#875827"/>
<path d="M1329 226.5C1329 251.353 1308.85 271.5 1284 271.5C1259.15 271.5 1239 251.353 1239 226.5C1239 201.647 1267.5 147 1284 147C1300 147 1329 201.647 1329 226.5Z" fill="#7DB342"/>
<path d="M1284 305H1272C1273.24 251.797 1280.52 238.165 1284 238V305Z" fill="#663A1A"/>
<path d="M1284 305H1296C1294.76 251.797 1287.48 238.165 1284 238V305Z" fill="#663A1A"/>
<path d="M1265.96 210.018C1265.96 240.66 1241.12 265.5 1210.48 265.5C1179.84 265.5 1155 240.66 1155 210.018C1155 179.376 1190.14 112 1210.48 112C1230.21 112 1265.96 179.376 1265.96 210.018Z" fill="#BFDB7D"/>
<path d="M1210 305H1196C1197.45 240.68 1205.94 224.2 1210 224V305Z" fill="#875827"/>
<path d="M1210 305H1225C1223.45 240.68 1214.35 224.2 1210 224V305Z" fill="#875827"/>
<path d="M1181 226.5C1181 251.353 1160.85 271.5 1136 271.5C1111.15 271.5 1091 251.353 1091 226.5C1091 201.647 1119.5 147 1136 147C1152 147 1181 201.647 1181 226.5Z" fill="#7DB342"/>
<path d="M1136 305H1124C1125.24 251.797 1132.52 238.165 1136 238V305Z" fill="#663A1A"/>
<path d="M1136 305H1148C1146.76 251.797 1139.48 238.165 1136 238V305Z" fill="#663A1A"/>
<path d="M1117.96 210.018C1117.96 240.66 1093.12 265.5 1062.48 265.5C1031.84 265.5 1007 240.66 1007 210.018C1007 179.376 1042.14 112 1062.48 112C1082.21 112 1117.96 179.376 1117.96 210.018Z" fill="#BFDB7D"/>
<path d="M1062 305H1048C1049.45 240.68 1057.94 224.2 1062 224V305Z" fill="#875827"/>
<path d="M1062 305H1077C1075.45 240.68 1066.35 224.2 1062 224V305Z" fill="#875827"/>
<path d="M1033 226.5C1033 251.353 1012.85 271.5 988 271.5C963.147 271.5 943 251.353 943 226.5C943 201.647 971.5 147 988 147C1004 147 1033 201.647 1033 226.5Z" fill="#7DB342"/>
<path d="M988 305H976C977.239 251.797 984.516 238.165 988 238V305Z" fill="#663A1A"/>
<path d="M988 305H1000C998.761 251.797 991.484 238.165 988 238V305Z" fill="#663A1A"/>
<path fill-rule="evenodd" clip-rule="evenodd" d="M1550 305H1620.24C1615.2 270.49 1585.67 244 1550 244V305Z" fill="#BFDB7D"/>
<path fill-rule="evenodd" clip-rule="evenodd" d="M1550.24 305H1480C1485.04 270.49 1514.57 244 1550.24 244C1550.24 244 1550.24 244 1550.24 244V305Z" fill="#8EBC3E"/>
<path fill-rule="evenodd" clip-rule="evenodd" d="M1683.61 305H1727.36C1724.22 283.502 1705.83 267 1683.61 267V305Z" fill="#BFDB7D"/>
<path fill-rule="evenodd" clip-rule="evenodd" d="M1683.76 305H1640C1643.14 283.502 1661.54 267 1683.76 267V305Z" fill="#8EBC3E"/>
<path fill-rule="evenodd" clip-rule="evenodd" d="M1619.61 305.102H1670.39C1666.75 280.152 1645.4 261 1619.61 261V305.102Z" fill="#7CB241"/>
<path fill-rule="evenodd" clip-rule="evenodd" d="M1619.78 305.102H1569C1572.65 280.152 1593.99 261 1619.78 261V305.102Z" fill="#467E28"/>
<path fill-rule="evenodd" clip-rule="evenodd" d="M1736.1 305.102H1767.31C1765.07 289.769 1751.95 278 1736.1 278V305.102Z" fill="#7CB241"/>
<path fill-rule="evenodd" clip-rule="evenodd" d="M1736.21 305.102H1705C1707.24 289.769 1720.36 278 1736.21 278V305.102Z" fill="#467E28"/>
<rect x="1541" y="108" width="128" height="28" rx="14" fill="#E9F2D0"/>
<ellipse cx="1582.5" cy="109" rx="19.5" ry="17" fill="#E9F2D0"/>
<ellipse cx="1620.5" cy="99.5" rx="36.5" ry="22.5" fill="#E9F2D0"/>
<rect x="1613" y="86" width="186" height="35" rx="17.5" fill="#EAF6FA"/>
<path d="M1698 77.5C1698 91.5833 1686.58 103 1672.5 103C1658.42 103 1647 91.5833 1647 77.5C1647 63.4167 1658.42 52 1672.5 52C1686.58 52 1698 63.4167 1698 77.5Z" fill="#EAF6FA"/>
<path d="M1751 68.5C1751 87.5538 1735.55 103 1716.5 103C1697.45 103 1682 87.5538 1682 68.5C1682 49.4462 1697.45 34 1716.5 34C1735.55 34 1751 49.4462 1751 68.5Z" fill="#EAF6FA"/>
<path d="M1788 86.5C1788 101.688 1775.69 114 1760.5 114C1745.31 114 1733 101.688 1733 86.5C1733 71.3122 1745.31 59 1760.5 59C1775.69 59 1788 71.3122 1788 86.5Z" fill="#EAF6FA"/>
<circle cx="1643" cy="86" r="14" fill="#EAF6FA"/>
<path d="M844.923 298.765C852.272 291.415 852.272 279.499 844.923 272.15C837.573 264.8 825.657 264.8 818.308 272.15C810.958 279.499 810.958 291.415 818.308 298.765C825.657 306.115 837.573 306.115 844.923 298.765Z" stroke="#8BBD51" stroke-width="4.04297" stroke-miterlimit="10" stroke-linecap="round" stroke-linejoin="round"/>
<path d="M911.693 298.765C919.042 291.415 919.042 279.499 911.693 272.15C904.343 264.8 892.427 264.8 885.078 272.15C877.728 279.499 877.728 291.415 885.078 298.765C892.427 306.115 904.343 306.115 911.693 298.765Z" stroke="#8BBD51" stroke-width="4.04297" stroke-miterlimit="10" stroke-linecap="round" stroke-linejoin="round"/>
<path d="M831.615 285.457L858.59 266.638L883.683 258.482L865.7 285.457H831.615Z" stroke="#8BBD51" stroke-width="4.04297" stroke-miterlimit="10" stroke-linejoin="round"/>
<path d="M898.385 285.457L883.683 252.624L895.184 252" stroke="#8BBD51" stroke-width="4.04297" stroke-miterlimit="10" stroke-linecap="round" stroke-linejoin="round"/>
<path d="M865.7 285.457L856.266 260.121" stroke="#8BBD51" stroke-width="4.04297" stroke-miterlimit="10" stroke-linejoin="round"/>
<path d="M860.983 258.26L851.198 261.815" stroke="#8BBD51" stroke-width="4.04297" stroke-miterlimit="10" stroke-linecap="round" stroke-linejoin="round"/>
<path d="M865.66 290.743C868.585 290.743 870.957 288.371 870.957 285.445C870.957 282.519 868.585 280.148 865.66 280.148C862.734 280.148 860.362 282.519 860.362 285.445C860.362 288.371 862.734 290.743 865.66 290.743Z" fill="#8BBD51" stroke="#85A957" stroke-width="0.975889" stroke-miterlimit="10"/>
<path d="M831.615 289.224C833.702 289.224 835.394 287.532 835.394 285.445C835.394 283.359 833.702 281.667 831.615 281.667C829.529 281.667 827.837 283.359 827.837 285.445C827.837 287.532 829.529 289.224 831.615 289.224Z" fill="#8BBD51" stroke="#85A957" stroke-width="0.975889" stroke-miterlimit="10"/>
<path d="M901.057 288.129C902.532 286.654 902.532 284.261 901.057 282.786C899.581 281.31 897.189 281.31 895.713 282.786C894.238 284.261 894.238 286.654 895.713 288.129C897.189 289.605 899.581 289.605 901.057 288.129Z" fill="#8BBD51" stroke="#85A957" stroke-width="0.975889" stroke-miterlimit="10"/>
<rect y="305" width="1866" height="19" rx="5" fill="#C3CC74"/>
<rect x="309" y="356" width="267" height="9" rx="4.5" fill="#D3DDA8"/>
<rect x="175" y="356" width="89" height="9" rx="4.5" fill="#D3DDA8"/>
<rect x="1121" y="356" width="52" height="9" rx="4.5" fill="#D3DDA8"/>
<rect x="1020" y="356" width="92" height="9" rx="4.5" fill="#D3DDA8"/>
</svg>
