<svg width="30" height="30" viewBox="0 0 30 30" fill="none" xmlns="http://www.w3.org/2000/svg">
<circle cx="15" cy="15" r="14.5" stroke="#41B946"/>
<path d="M14.0938 18.5V18.4062C14.1042 17.4115 14.2083 16.6198 14.4063 16.0312C14.6042 15.4427 14.8854 14.9661 15.25 14.6016C15.6146 14.237 16.0521 13.901 16.5625 13.5937C16.8698 13.4062 17.1458 13.1849 17.3906 12.9297C17.6354 12.6693 17.8281 12.3698 17.9687 12.0312C18.1146 11.6927 18.1875 11.3177 18.1875 10.9062C18.1875 10.3958 18.0677 9.95312 17.8281 9.57812C17.5885 9.20312 17.2682 8.91406 16.8672 8.71094C16.4661 8.50781 16.0208 8.40625 15.5313 8.40625C15.1042 8.40625 14.6927 8.49479 14.2969 8.67187C13.901 8.84896 13.5703 9.1276 13.3047 9.50781C13.0391 9.88802 12.8854 10.3854 12.8438 11H10.875C10.9167 10.1146 11.1458 9.35677 11.5625 8.72656C11.9844 8.09635 12.5391 7.61458 13.2266 7.28125C13.9193 6.94792 14.6875 6.78125 15.5313 6.78125C16.4479 6.78125 17.2448 6.96354 17.9219 7.32812C18.6042 7.69271 19.1302 8.19271 19.5 8.82812C19.875 9.46354 20.0625 10.1875 20.0625 11C20.0625 11.5729 19.974 12.0911 19.7969 12.5547C19.625 13.0182 19.375 13.4323 19.0469 13.7969C18.724 14.1615 18.3333 14.4844 17.875 14.7656C17.4167 15.0521 17.0495 15.3542 16.7734 15.6719C16.4974 15.9844 16.2969 16.3568 16.1719 16.7891C16.0469 17.2214 15.9792 17.7604 15.9687 18.4062V18.5H14.0938ZM15.0938 23.125C14.7083 23.125 14.3776 22.987 14.1016 22.7109C13.8255 22.4349 13.6875 22.1042 13.6875 21.7187C13.6875 21.3333 13.8255 21.0026 14.1016 20.7266C14.3776 20.4505 14.7083 20.3125 15.0938 20.3125C15.4792 20.3125 15.8099 20.4505 16.0859 20.7266C16.362 21.0026 16.5 21.3333 16.5 21.7187C16.5 21.974 16.4349 22.2083 16.3047 22.4219C16.1797 22.6354 16.0104 22.8073 15.7969 22.9375C15.5885 23.0625 15.3542 23.125 15.0938 23.125Z" fill="#41B946"/>
</svg>
